<?xml version="1.0" encoding="utf-8"?>
<!-- Generator: Adobe Illustrator 22.0.1, SVG Export Plug-In . SVG Version: 6.00 Build 0)  -->
<!DOCTYPE svg PUBLIC "-//W3C//DTD SVG 1.1//EN" "http://www.w3.org/Graphics/SVG/1.1/DTD/svg11.dtd">
<svg version="1.1" xmlns="http://www.w3.org/2000/svg" xmlns:xlink="http://www.w3.org/1999/xlink" x="0px" y="0px"
	 viewBox="0 0 435 435" style="enable-background:new 0 0 435 435;" xml:space="preserve">
<style type="text/css">
	.st0{fill:#F2F2F2;}
	.st1{fill:#A0E499;}
	.st2{fill:none;stroke:#AAA9A6;stroke-width:0.3692;stroke-miterlimit:10;}
	.st3{fill:#93888B;}
	.st4{fill:#656160;}
	.st5{fill:#D7F196;}
	.st6{fill:#9CC7F7;}
	.st7{fill:#656160;stroke:#656160;stroke-width:0.6384;stroke-miterlimit:10;}
	.st8{fill:#70AA52;}
	.st9{fill:#FFFFFF;}
	.st10{fill:#656160;stroke:#656160;stroke-width:0.6807;stroke-miterlimit:10;}
	.st11{fill:#FFFFFF;stroke:#656160;stroke-width:4;stroke-linecap:round;stroke-miterlimit:10;}
	.st12{fill:none;stroke:#656160;stroke-miterlimit:10;}
	.st13{fill:none;stroke:#656160;stroke-width:2;stroke-miterlimit:10;}
	.st14{fill:none;stroke:#656160;stroke-width:2;stroke-linecap:round;stroke-miterlimit:10;}
	.st15{fill:#656160;stroke:#656160;stroke-width:0.4688;stroke-miterlimit:10;}
	.st16{fill:#656160;stroke:#656160;stroke-width:0.579;stroke-miterlimit:10;}
	.st17{fill:#F2F2F2;stroke:#656160;stroke-width:2.3777;stroke-miterlimit:10;}
	.st18{fill:#656160;stroke:#656160;stroke-width:0.5573;stroke-miterlimit:10;}
	.st19{fill:none;stroke:#656160;stroke-width:2.3777;stroke-miterlimit:10;}
	.st20{fill:none;stroke:#656160;stroke-width:2.3777;stroke-linecap:round;stroke-miterlimit:10;}
	.st21{fill:#CCCCCC;}
	.st22{fill:none;stroke:#FFFFFF;stroke-width:6.6302;stroke-linecap:round;stroke-miterlimit:10;}
	.st23{fill:none;stroke:#9CC7F7;stroke-miterlimit:10;}
	.st24{fill:none;stroke:#CCCCCC;stroke-miterlimit:10;}
	.st25{fill:#656160;stroke:#656160;stroke-width:1.2314;stroke-miterlimit:10;}
	.st26{fill:#656160;stroke:#656160;stroke-width:0.5831;stroke-miterlimit:10;}
	.st27{opacity:0.42;}
	.st28{fill:none;stroke:#000000;stroke-width:1.0848;stroke-miterlimit:10;}
	.st29{fill:none;stroke:#000000;stroke-width:0.9024;stroke-miterlimit:10;}
</style>
<g id="Layer_1">
	<rect x="-0.5" y="-0.7" class="st5" width="435.9" height="436.3"/>
	<g>
		<path class="st8" d="M435,196.2l-15.2,15.2c-1.3,1.3-1.3,3.4,0,4.8l0,0c1.3,1.3,3.4,1.3,4.8,0l10.4-10.4V196.2z"/>
		<path class="st9" d="M325.1,435l18.5-18.5c1.3-1.3,1.3-3.4,0-4.8l0,0c-1.3-1.3-3.4-1.3-4.8,0L315.5,435H325.1z"/>
		<path class="st9" d="M242.8,412.2l36.4-36.4c1.3-1.3,3.4-1.3,4.8,0l0,0c1.3,1.3,1.3,3.4,0,4.8L247.6,417c-1.3,1.3-3.4,1.3-4.8,0
			l0,0C241.5,415.7,241.5,413.6,242.8,412.2z"/>
		<path class="st1" d="M229.6,435l22.5-22.5c1.3-1.3,1.3-3.4,0-4.8l0,0c-1.3-1.3-3.4-1.3-4.8,0L220,435H229.6z"/>
		<path class="st9" d="M134.2,435l14.4-14.4c1.3-1.3,1.3-3.4,0-4.8l0,0c-1.3-1.3-3.4-1.3-4.8,0L124.6,435H134.2z"/>
		<path class="st9" d="M110.4,435l13.3-13.3c1.3-1.3,1.3-3.4,0-4.8l0,0c-1.3-1.3-3.4-1.3-4.8,0L100.8,435H110.4z"/>
		<path class="st1" d="M17.6,114.2L17.6,114.2c-1.4-1.4-3.5-1.4-4.8,0L0,126.9l0,9.6l17.6-17.6C18.9,117.6,18.9,115.5,17.6,114.2z"
			/>
		<path class="st9" d="M153.2,7.2l-36.4,36.4c-1.3,1.3-3.4,1.3-4.8,0l0,0c-1.3-1.3-1.3-3.4,0-4.8l36.4-36.4c1.3-1.3,3.4-1.3,4.8,0
			l0,0C154.5,3.7,154.5,5.8,153.2,7.2z"/>
		<path class="st1" d="M150.8,0l-24.6,24.6c-1.3,1.3-1.3,3.4,0,4.8l0,0c1.3,1.3,3.4,1.3,4.8,0L160.4,0L150.8,0z"/>
		<path class="st8" d="M270,0l-12.1,12.1c-1.3,1.3-1.3,3.4,0,4.8l0,0c1.3,1.3,3.4,1.3,4.8,0L279.6,0L270,0z"/>
		<path class="st8" d="M317.7,0l-25.5,25.5c-1.3,1.3-1.3,3.4,0,4.8l0,0c1.3,1.3,3.4,1.3,4.8,0l29.2-29.2c0.3-0.3,0.6-0.7,0.7-1.1
			L317.7,0z"/>
		<path class="st9" d="M365.4,0l-21.7,21.7c-1.3,1.3-1.3,3.4,0,4.8l0,0c1.3,1.3,3.4,1.3,4.8,0L375,0L365.4,0z"/>
		<path class="st1" d="M365.4,0l-35.9,35.9c-1.3,1.3-1.3,3.4,0,4.8l0,0c1.3,1.3,3.4,1.3,4.8,0l36.4-36.4c1.2-1.2,1.3-2.9,0.4-4.3
			L365.4,0z"/>
		<g>
			<path class="st9" d="M24.2,16.9l-11,11c-1.3,1.3-3.4,1.3-4.8,0l0,0c-1.3-1.3-1.3-3.4,0-4.8l11-11c1.3-1.3,3.4-1.3,4.8,0l0,0
				C25.5,13.5,25.5,15.6,24.2,16.9z"/>
			<path class="st8" d="M7.3,33.9L7.3,33.9c-1.4,1.4-3.5,1.4-4.8,0.1l0,0c-1.3-1.3-1.3-3.4,0-4.8l0.1-0.1c1.3-1.3,3.4-1.3,4.8,0l0,0
				C8.6,30.4,8.6,32.6,7.3,33.9z"/>
		</g>
		<path class="st1" d="M23.8,31.6L23.8,31.6c1.4-1.4,3.5-1.4,4.8-0.1l0,0c1.3,1.3,1.3,3.4,0,4.8l-0.1,0.1c-1.3,1.3-3.4,1.3-4.8,0
			l0,0C22.4,35,22.4,32.9,23.8,31.6z"/>
		<path class="st9" d="M18.3,60.9l11-11c1.3-1.3,3.4-1.3,4.8,0l0,0c1.3,1.3,1.3,3.4,0,4.8l-11,11c-1.3,1.3-3.4,1.3-4.8,0l0,0
			C17,64.3,17,62.2,18.3,60.9z"/>
		<path class="st1" d="M6.5,96.5l36.4-36.4c1.3-1.3,3.4-1.3,4.8,0l0,0c1.3,1.3,1.3,3.4,0,4.8l-36.4,36.4c-1.3,1.3-3.4,1.3-4.8,0l0,0
			C5.2,100,5.2,97.9,6.5,96.5z"/>
		<g>
			<path class="st9" d="M5.9,121L5.9,121c1.4-1.4,3.5-1.4,4.8-0.1l0,0c1.3,1.3,1.3,3.4,0,4.8l-0.1,0.1c-1.3,1.3-3.4,1.3-4.8,0l0,0
				C4.6,124.5,4.6,122.4,5.9,121z"/>
			<path class="st1" d="M39.4,87.5l11-11c1.3-1.3,3.4-1.3,4.8,0l0,0c1.3,1.3,1.3,3.4,0,4.8l-11,11c-1.3,1.3-3.4,1.3-4.8,0l0,0
				C38.1,90.9,38.1,88.8,39.4,87.5z"/>
			<path class="st9" d="M62.3,64.6L62.3,64.6c1.4-1.4,3.5-1.4,4.8-0.1l0,0c1.3,1.3,1.3,3.4,0,4.8l-0.1,0.1c-1.3,1.3-3.4,1.3-4.8,0
				l0,0C61,68.1,61,66,62.3,64.6z"/>
		</g>
		<g>
			<path class="st9" d="M92.7,139l-11,11c-1.3,1.3-3.4,1.3-4.8,0l0,0c-1.3-1.3-1.3-3.4,0-4.8l11-11c1.3-1.3,3.4-1.3,4.8,0l0,0
				C94,135.5,94,137.7,92.7,139z"/>
			<path class="st8" d="M40.8,190.9l-29.2,29.2c-1.3,1.3-3.4,1.3-4.8,0l0,0c-1.3-1.3-1.3-3.4,0-4.8L36,186.1c1.3-1.3,3.4-1.3,4.8,0
				l0,0C42.1,187.5,42.1,189.6,40.8,190.9z"/>
			<path class="st9" d="M24.1,207.6L24.1,207.6c-1.4,1.4-3.5,1.4-4.8,0.1l0,0c-1.3-1.3-1.3-3.4,0-4.8l0.1-0.1c1.3-1.3,3.4-1.3,4.8,0
				l0,0C25.4,204.2,25.4,206.3,24.1,207.6z"/>
			<path class="st8" d="M102.5,129.1L102.5,129.1c-1.4,1.4-3.5,1.4-4.8,0.1l0,0c-1.3-1.3-1.3-3.4,0-4.8l0.1-0.1
				c1.3-1.3,3.4-1.3,4.8,0l0,0C103.8,125.7,103.8,127.8,102.5,129.1z"/>
		</g>
		<g>
			<path class="st9" d="M14.5,184l36.4-36.4c1.3-1.3,3.4-1.3,4.8,0l0,0c1.3,1.3,1.3,3.4,0,4.8l-36.4,36.4c-1.3,1.3-3.4,1.3-4.8,0
				l0,0C13.2,187.4,13.2,185.3,14.5,184z"/>
			<path class="st8" d="M87.1,111.4l11-11c1.3-1.3,3.4-1.3,4.8,0l0,0c1.3,1.3,1.3,3.4,0,4.8l-11,11c-1.3,1.3-3.4,1.3-4.8,0l0,0
				C85.8,114.8,85.8,112.7,87.1,111.4z"/>
			<path class="st1" d="M60.3,138.1L60.3,138.1c1.4-1.4,3.5-1.4,4.8-0.1l0,0c1.3,1.3,1.3,3.4,0,4.8l-0.1,0.1c-1.3,1.3-3.4,1.3-4.8,0
				l0,0C59,141.6,59,139.4,60.3,138.1z"/>
		</g>
		<g>
			<path class="st9" d="M69,115.3l-11,11c-1.3,1.3-3.4,1.3-4.8,0l0,0c-1.3-1.3-1.3-3.4,0-4.8l11-11c1.3-1.3,3.4-1.3,4.8,0l0,0
				C70.3,111.8,70.3,113.9,69,115.3z"/>
			<path class="st8" d="M78.8,105.4L78.8,105.4c-1.4,1.4-3.5,1.4-4.8,0.1l0,0c-1.3-1.3-1.3-3.4,0-4.8l0.1-0.1c1.3-1.3,3.4-1.3,4.8,0
				l0,0C80.1,102,80.1,104.1,78.8,105.4z"/>
		</g>
		<g>
			<path class="st1" d="M22,138.3l-11,11c-1.3,1.3-3.4,1.3-4.8,0l0,0c-1.3-1.3-1.3-3.4,0-4.8l11-11c1.3-1.3,3.4-1.3,4.8,0l0,0
				C23.3,134.9,23.3,137,22,138.3z"/>
			<path class="st9" d="M51.1,99.7l11-11c1.3-1.3,3.4-1.3,4.8,0l0,0c1.3,1.3,1.3,3.4,0,4.8l-11,11c-1.3,1.3-3.4,1.3-4.8,0l0,0
				C49.7,103.2,49.7,101,51.1,99.7z"/>
			<path class="st8" d="M36.5,114.3L36.5,114.3c1.4-1.4,3.5-1.4,4.8-0.1l0,0c1.3,1.3,1.3,3.4,0,4.8l-0.1,0.1c-1.3,1.3-3.4,1.3-4.8,0
				l0,0C35.2,117.7,35.2,115.6,36.5,114.3z"/>
		</g>
		<g>
			<path class="st8" d="M105.2,164.8l11-11c1.3-1.3,3.4-1.3,4.8,0l0,0c1.3,1.3,1.3,3.4,0,4.8l-11,11c-1.3,1.3-3.4,1.3-4.8,0l0,0
				C103.9,168.2,103.9,166.1,105.2,164.8z"/>
			<path class="st9" d="M34.9,235.1l36.4-36.4c1.3-1.3,3.4-1.3,4.8,0l0,0c1.3,1.3,1.3,3.4,0,4.8l-36.4,36.4c-1.3,1.3-3.4,1.3-4.8,0
				l0,0C33.6,238.6,33.6,236.5,34.9,235.1z"/>
			<path class="st8" d="M34.4,235.6l29.2-29.2c1.3-1.3,3.4-1.3,4.8,0l0,0c1.3,1.3,1.3,3.4,0,4.8l-29.2,29.2c-1.3,1.3-3.4,1.3-4.8,0
				l0,0C33.1,239,33.1,236.9,34.4,235.6z"/>
			<path class="st1" d="M90.7,179.4L90.7,179.4c1.4-1.4,3.5-1.4,4.8-0.1l0,0c1.3,1.3,1.3,3.4,0,4.8l-0.1,0.1c-1.3,1.3-3.4,1.3-4.8,0
				l0,0C89.4,182.8,89.4,180.7,90.7,179.4z"/>
			<path class="st9" d="M38.7,231.4L38.7,231.4c1.4-1.4,3.5-1.4,4.8-0.1l0,0c1.3,1.3,1.3,3.4,0,4.8l-0.1,0.1c-1.3,1.3-3.4,1.3-4.8,0
				l0,0C37.4,234.8,37.4,232.7,38.7,231.4z"/>
		</g>
		<g>
			<path class="st1" d="M91.2,250.3l11-11c1.3-1.3,3.4-1.3,4.8,0l0,0c1.3,1.3,1.3,3.4,0,4.8l-11,11c-1.3,1.3-3.4,1.3-4.8,0l0,0
				C89.9,253.8,89.9,251.7,91.2,250.3z"/>
			<path class="st9" d="M149.5,192.1l11-11c1.3-1.3,3.4-1.3,4.8,0l0,0c1.3,1.3,1.3,3.4,0,4.8l-11,11c-1.3,1.3-3.4,1.3-4.8,0l0,0
				C148.2,195.5,148.2,193.4,149.5,192.1z"/>
			<path class="st8" d="M115.6,226l36.4-36.4c1.3-1.3,3.4-1.3,4.8,0l0,0c1.3,1.3,1.3,3.4,0,4.8l-36.4,36.4c-1.3,1.3-3.4,1.3-4.8,0
				l0,0C114.3,229.4,114.3,227.3,115.6,226z"/>
			<path class="st9" d="M81.4,260.2L81.4,260.2c1.4-1.4,3.5-1.4,4.8-0.1l0,0c1.3,1.3,1.3,3.4,0,4.8l-0.1,0.1c-1.3,1.3-3.4,1.3-4.8,0
				l0,0C80.1,263.6,80.1,261.5,81.4,260.2z"/>
		</g>
		<g>
			<path class="st8" d="M58.9,196.9l-11,11c-1.3,1.3-3.4,1.3-4.8,0l0,0c-1.3-1.3-1.3-3.4,0-4.8l11-11c1.3-1.3,3.4-1.3,4.8,0l0,0
				C60.2,193.4,60.2,195.6,58.9,196.9z"/>
			<path class="st1" d="M78.1,168.1l36.4-36.4c1.3-1.3,3.4-1.3,4.8,0l0,0c1.3,1.3,1.3,3.4,0,4.8l-36.4,36.4c-1.3,1.3-3.4,1.3-4.8,0
				l0,0C76.8,171.5,76.8,169.4,78.1,168.1z"/>
			<path class="st9" d="M73.5,182.3L73.5,182.3c-1.4,1.4-3.5,1.4-4.8,0.1l0,0c-1.3-1.3-1.3-3.4,0-4.8l0.1-0.1c1.3-1.3,3.4-1.3,4.8,0
				l0,0C74.8,178.9,74.8,181,73.5,182.3z"/>
			<path class="st9" d="M19.6,236.2L19.6,236.2c-1.4,1.4-3.5,1.4-4.8,0.1l0,0c-1.3-1.3-1.3-3.4,0-4.8l0.1-0.1c1.3-1.3,3.4-1.3,4.8,0
				l0,0C20.9,232.8,20.9,234.9,19.6,236.2z"/>
		</g>
		<g>
			<path class="st9" d="M74,219.8l36.4-36.4c1.3-1.3,3.4-1.3,4.8,0l0,0c1.3,1.3,1.3,3.4,0,4.8l-36.4,36.4c-1.3,1.3-3.4,1.3-4.8,0
				l0,0C72.7,223.3,72.7,221.2,74,219.8z"/>
			<path class="st8" d="M50.8,252.7l-11,11c-1.3,1.3-3.4,1.3-4.8,0l0,0c-1.3-1.3-1.3-3.4,0-4.8l11-11c1.3-1.3,3.4-1.3,4.8,0l0,0
				C52.1,249.3,52.1,251.4,50.8,252.7z"/>
			<path class="st1" d="M59.9,234l36.4-36.4c1.3-1.3,3.4-1.3,4.8,0l0,0c1.3,1.3,1.3,3.4,0,4.8l-36.4,36.4c-1.3,1.3-3.4,1.3-4.8,0
				l0,0C58.6,237.4,58.6,235.3,59.9,234z"/>
			<path class="st9" d="M89.4,204.5L89.4,204.5c1.4-1.4,3.5-1.4,4.8-0.1l0,0c1.3,1.3,1.3,3.4,0,4.8l-0.1,0.1c-1.3,1.3-3.4,1.3-4.8,0
				l0,0C88,208,88,205.8,89.4,204.5z"/>
			<path class="st9" d="M27.9,275.6L27.9,275.6c-1.4,1.4-3.5,1.4-4.8,0.1l0,0c-1.3-1.3-1.3-3.4,0-4.8l0.1-0.1c1.3-1.3,3.4-1.3,4.8,0
				l0,0C29.2,272.1,29.2,274.3,27.9,275.6z"/>
			<path class="st1" d="M122.9,171l11-11c1.3-1.3,3.4-1.3,4.8,0l0,0c1.3,1.3,1.3,3.4,0,4.8l-11,11c-1.3,1.3-3.4,1.3-4.8,0l0,0
				C121.6,174.4,121.6,172.3,122.9,171z"/>
			<path class="st9" d="M145.8,148.1L145.8,148.1c1.4-1.4,3.5-1.4,4.8-0.1l0,0c1.3,1.3,1.3,3.4,0,4.8l-0.1,0.1
				c-1.3,1.3-3.4,1.3-4.8,0l0,0C144.4,151.6,144.4,149.4,145.8,148.1z"/>
		</g>
		<g>
			<path class="st8" d="M129.1,188.6l11-11c1.3-1.3,3.4-1.3,4.8,0l0,0c1.3,1.3,1.3,3.4,0,4.8l-11,11c-1.3,1.3-3.4,1.3-4.8,0l0,0
				C127.8,192.1,127.8,189.9,129.1,188.6z"/>
			<path class="st9" d="M58.7,259l36.4-36.4c1.3-1.3,3.4-1.3,4.8,0l0,0c1.3,1.3,1.3,3.4,0,4.8l-36.4,36.4c-1.3,1.3-3.4,1.3-4.8,0
				l0,0C57.4,262.4,57.4,260.3,58.7,259z"/>
			<path class="st8" d="M58.3,259.4l29.2-29.2c1.3-1.3,3.4-1.3,4.8,0l0,0c1.3,1.3,1.3,3.4,0,4.8l-29.2,29.2c-1.3,1.3-3.4,1.3-4.8,0
				l0,0C57,262.9,57,260.7,58.3,259.4z"/>
			<path class="st1" d="M114.5,203.2L114.5,203.2c1.4-1.4,3.5-1.4,4.8-0.1l0,0c1.3,1.3,1.3,3.4,0,4.8l-0.1,0.1
				c-1.3,1.3-3.4,1.3-4.8,0l0,0C113.2,206.7,113.2,204.5,114.5,203.2z"/>
			<path class="st9" d="M62.5,255.2L62.5,255.2c1.4-1.4,3.5-1.4,4.8-0.1l0,0c1.3,1.3,1.3,3.4,0,4.8l-0.1,0.1c-1.3,1.3-3.4,1.3-4.8,0
				l0,0C61.2,258.6,61.2,256.5,62.5,255.2z"/>
		</g>
		<g>
			<path class="st9" d="M50.4,348.5L14,384.9c-1.3,1.3-3.4,1.3-4.8,0l0,0c-1.3-1.3-1.3-3.4,0-4.8l36.4-36.4c1.3-1.3,3.4-1.3,4.8,0
				l0,0C51.7,345,51.7,347.2,50.4,348.5z"/>
			<path class="st1" d="M115.1,274.2l11-11c1.3-1.3,3.4-1.3,4.8,0l0,0c1.3,1.3,1.3,3.4,0,4.8l-11,11c-1.3,1.3-3.4,1.3-4.8,0l0,0
				C113.8,277.6,113.8,275.5,115.1,274.2z"/>
			<path class="st9" d="M173.4,215.9l11-11c1.3-1.3,3.4-1.3,4.8,0l0,0c1.3,1.3,1.3,3.4,0,4.8l-11,11c-1.3,1.3-3.4,1.3-4.8,0l0,0
				C172.1,219.4,172.1,217.2,173.4,215.9z"/>
			<path class="st8" d="M139.5,249.8l36.4-36.4c1.3-1.3,3.4-1.3,4.8,0l0,0c1.3,1.3,1.3,3.4,0,4.8l-36.4,36.4c-1.3,1.3-3.4,1.3-4.8,0
				l0,0C138.2,253.3,138.2,251.1,139.5,249.8z"/>
			<path class="st1" d="M82.3,316.6L45.9,353c-1.3,1.3-3.4,1.3-4.8,0l0,0c-1.3-1.3-1.3-3.4,0-4.8l36.4-36.4c1.3-1.3,3.4-1.3,4.8,0
				l0,0C83.6,313.1,83.6,315.3,82.3,316.6z"/>
			<path class="st1" d="M6.4,392.5L6.4,392.5c-1.4,1.4-3.5,1.4-4.8,0.1l0,0c-1.3-1.3-1.3-3.4,0-4.8l0.1-0.1c1.3-1.3,3.4-1.3,4.8,0
				l0,0C7.7,389.1,7.7,391.2,6.4,392.5z"/>
			<path class="st9" d="M52.8,346.1L52.8,346.1c-1.4,1.4-3.5,1.4-4.8,0.1l0,0c-1.3-1.3-1.3-3.4,0-4.8l0.1-0.1c1.3-1.3,3.4-1.3,4.8,0
				l0,0C54.1,342.6,54.1,344.7,52.8,346.1z"/>
			<path class="st9" d="M105.2,284L105.2,284c1.4-1.4,3.5-1.4,4.8-0.1l0,0c1.3,1.3,1.3,3.4,0,4.8l-0.1,0.1c-1.3,1.3-3.4,1.3-4.8,0
				l0,0C103.9,287.5,103.9,285.3,105.2,284z"/>
		</g>
		<g>
			<path class="st9" d="M109.8,255.6l36.4-36.4c1.3-1.3,3.4-1.3,4.8,0l0,0c1.3,1.3,1.3,3.4,0,4.8l-36.4,36.4c-1.3,1.3-3.4,1.3-4.8,0
				l0,0C108.5,259.1,108.5,256.9,109.8,255.6z"/>
			<path class="st8" d="M86.5,288.5l-11,11c-1.3,1.3-3.4,1.3-4.8,0l0,0c-1.3-1.3-1.3-3.4,0-4.8l11-11c1.3-1.3,3.4-1.3,4.8,0l0,0
				C87.8,285.1,87.8,287.2,86.5,288.5z"/>
			<path class="st8" d="M48.3,326.7l-36.4,36.4c-1.3,1.3-3.4,1.3-4.8,0l0,0c-1.3-1.3-1.3-3.4,0-4.8l36.4-36.4c1.3-1.3,3.4-1.3,4.8,0
				l0,0C49.6,323.3,49.6,325.4,48.3,326.7z"/>
			<path class="st1" d="M95.7,269.8l36.4-36.4c1.3-1.3,3.4-1.3,4.8,0l0,0c1.3,1.3,1.3,3.4,0,4.8l-36.4,36.4c-1.3,1.3-3.4,1.3-4.8,0
				l0,0C94.3,273.2,94.3,271.1,95.7,269.8z"/>
			<path class="st9" d="M125.1,240.3L125.1,240.3c1.4-1.4,3.5-1.4,4.8-0.1l0,0c1.3,1.3,1.3,3.4,0,4.8l-0.1,0.1
				c-1.3,1.3-3.4,1.3-4.8,0l0,0C123.8,243.7,123.8,241.6,125.1,240.3z"/>
			<path class="st9" d="M63.7,311.4L63.7,311.4c-1.4,1.4-3.5,1.4-4.8,0.1l0,0c-1.3-1.3-1.3-3.4,0-4.8l0.1-0.1c1.3-1.3,3.4-1.3,4.8,0
				l0,0C65,307.9,65,310,63.7,311.4z"/>
			<path class="st1" d="M158.7,206.8l11-11c1.3-1.3,3.4-1.3,4.8,0l0,0c1.3,1.3,1.3,3.4,0,4.8l-11,11c-1.3,1.3-3.4,1.3-4.8,0l0,0
				C157.4,210.2,157.4,208.1,158.7,206.8z"/>
			<path class="st9" d="M181.5,183.9L181.5,183.9c1.4-1.4,3.5-1.4,4.8-0.1l0,0c1.3,1.3,1.3,3.4,0,4.8l-0.1,0.1
				c-1.3,1.3-3.4,1.3-4.8,0l0,0C180.2,187.3,180.2,185.2,181.5,183.9z"/>
		</g>
		<path class="st8" d="M41.1,14.2L41.1,14.2c1.4-1.4,3.5-1.4,4.8-0.1l0,0c1.3,1.3,1.3,3.4,0,4.8L45.9,19c-1.3,1.3-3.4,1.3-4.8,0l0,0
			C39.8,17.7,39.8,15.6,41.1,14.2z"/>
		<g>
			<path class="st8" d="M56.7,32.2l-11,11c-1.3,1.3-3.4,1.3-4.8,0l0,0c-1.3-1.3-1.3-3.4,0-4.8l11-11c1.3-1.3,3.4-1.3,4.8,0l0,0
				C58,28.7,58,30.8,56.7,32.2z"/>
			<path class="st1" d="M80,8.8L80,8.8c-1.4,1.4-3.5,1.4-4.8,0.1l0,0c-1.3-1.3-1.3-3.4,0-4.8L75.2,4c1.3-1.3,3.4-1.3,4.8,0l0,0
				C81.3,5.4,81.3,7.5,80,8.8z"/>
		</g>
		<g>
			<path class="st9" d="M80.8,31.9l-11,11c-1.3,1.3-3.4,1.3-4.8,0l0,0c-1.3-1.3-1.3-3.4,0-4.8l11-11c1.3-1.3,3.4-1.3,4.8,0l0,0
				C82.1,28.4,82.1,30.6,80.8,31.9z"/>
			<path class="st8" d="M90.6,22L90.6,22c-1.4,1.4-3.5,1.4-4.8,0.1l0,0c-1.3-1.3-1.3-3.4,0-4.8l0.1-0.1c1.3-1.3,3.4-1.3,4.8,0l0,0
				C92,18.6,92,20.7,90.6,22z"/>
		</g>
		<g>
			<path class="st9" d="M92.7,43.8l-11,11c-1.3,1.3-3.4,1.3-4.8,0l0,0c-1.3-1.3-1.3-3.4,0-4.8l11-11c1.3-1.3,3.4-1.3,4.8,0l0,0
				C94,40.4,94,42.5,92.7,43.8z"/>
			<path class="st8" d="M107.3,29.2L107.3,29.2c-1.4,1.4-3.5,1.4-4.8,0.1l0,0c-1.3-1.3-1.3-3.4,0-4.8l0.1-0.1c1.3-1.3,3.4-1.3,4.8,0
				l0,0C108.6,25.8,108.6,27.9,107.3,29.2z"/>
		</g>
		<g>
			<path class="st9" d="M224.6,7.1l-36.4,36.4c-1.3,1.3-3.4,1.3-4.8,0l0,0c-1.3-1.3-1.3-3.4,0-4.8l36.4-36.4c1.3-1.3,3.4-1.3,4.8,0
				l0,0C225.9,3.6,225.9,5.7,224.6,7.1z"/>
			<path class="st8" d="M145.7,85.9l-11,11c-1.3,1.3-3.4,1.3-4.8,0l0,0c-1.3-1.3-1.3-3.4,0-4.8l11-11c1.3-1.3,3.4-1.3,4.8,0l0,0
				C147.1,82.5,147.1,84.6,145.7,85.9z"/>
			<path class="st1" d="M160.3,71.4L160.3,71.4c-1.4,1.4-3.5,1.4-4.8,0.1l0,0c-1.3-1.3-1.3-3.4,0-4.8l0.1-0.1c1.3-1.3,3.4-1.3,4.8,0
				l0,0C161.6,67.9,161.6,70,160.3,71.4z"/>
			<path class="st9" d="M212.3,19.4L212.3,19.4c-1.4,1.4-3.5,1.4-4.8,0.1l0,0c-1.3-1.3-1.3-3.4,0-4.8l0.1-0.1c1.3-1.3,3.4-1.3,4.8,0
				l0,0C213.6,15.9,213.6,18.1,212.3,19.4z"/>
		</g>
		<g>
			<path class="st1" d="M128,70.5l11-11c1.3-1.3,3.4-1.3,4.8,0l0,0c1.3,1.3,1.3,3.4,0,4.8l-11,11c-1.3,1.3-3.4,1.3-4.8,0l0,0
				C126.7,73.9,126.7,71.8,128,70.5z"/>
			<path class="st8" d="M152.3,46.1l36.4-36.4c1.3-1.3,3.4-1.3,4.8,0l0,0c1.3,1.3,1.3,3.4,0,4.8l-36.4,36.4c-1.3,1.3-3.4,1.3-4.8,0
				l0,0C151,49.6,151,47.4,152.3,46.1z"/>
			<path class="st9" d="M118.1,80.4L118.1,80.4c1.4-1.4,3.5-1.4,4.8-0.1l0,0c1.3,1.3,1.3,3.4,0,4.8l-0.1,0.1c-1.3,1.3-3.4,1.3-4.8,0
				l0,0C116.8,83.8,116.8,81.7,118.1,80.4z"/>
		</g>
		<g>
			<path class="st8" d="M111.9,72.4l-11,11c-1.3,1.3-3.4,1.3-4.8,0l0,0c-1.3-1.3-1.3-3.4,0-4.8l11-11c1.3-1.3,3.4-1.3,4.8,0l0,0
				C113.2,68.9,113.2,71.1,111.9,72.4z"/>
			<path class="st1" d="M131,43.6l36.4-36.4c1.3-1.3,3.4-1.3,4.8,0l0,0c1.3,1.3,1.3,3.4,0,4.8l-36.4,36.4c-1.3,1.3-3.4,1.3-4.8,0
				l0,0C129.7,47,129.7,44.9,131,43.6z"/>
			<path class="st9" d="M126.4,57.8L126.4,57.8c-1.4,1.4-3.5,1.4-4.8,0.1l0,0c-1.3-1.3-1.3-3.4,0-4.8l0.1-0.1c1.3-1.3,3.4-1.3,4.8,0
				l0,0C127.7,54.4,127.7,56.5,126.4,57.8z"/>
		</g>
		<g>
			<path class="st9" d="M137.9,22.5L137.9,22.5c-1.4,1.4-3.5,1.4-4.8,0.1l0,0c-1.3-1.3-1.3-3.4,0-4.8l0.1-0.1c1.3-1.3,3.4-1.3,4.8,0
				l0,0C139.2,19,139.2,21.2,137.9,22.5z"/>
			<path class="st1" d="M104.4,56l-11,11c-1.3,1.3-3.4,1.3-4.8,0l0,0c-1.3-1.3-1.3-3.4,0-4.8l11-11c1.3-1.3,3.4-1.3,4.8,0l0,0
				C105.7,52.6,105.7,54.7,104.4,56z"/>
			<path class="st9" d="M81.5,78.9L81.5,78.9c-1.4,1.4-3.5,1.4-4.8,0.1l0,0c-1.3-1.3-1.3-3.4,0-4.8l0.1-0.1c1.3-1.3,3.4-1.3,4.8,0
				l0,0C82.8,75.4,82.8,77.6,81.5,78.9z"/>
		</g>
		<g>
			<path class="st9" d="M158.3,111.7l11-11c1.3-1.3,3.4-1.3,4.8,0l0,0c1.3,1.3,1.3,3.4,0,4.8l-11,11c-1.3,1.3-3.4,1.3-4.8,0l0,0
				C157,115.2,157,113,158.3,111.7z"/>
			<path class="st1" d="M196.5,73.5l36.4-36.4c1.3-1.3,3.4-1.3,4.8,0l0,0c1.3,1.3,1.3,3.4,0,4.8l-36.4,36.4c-1.3,1.3-3.4,1.3-4.8,0
				l0,0C195.2,77,195.2,74.8,196.5,73.5z"/>
			<path class="st9" d="M262.1,7.9L262.1,7.9c1.4-1.4,3.5-1.4,4.8-0.1l0,0c1.3,1.3,1.3,3.4,0,4.8l-0.1,0.1c-1.3,1.3-3.4,1.3-4.8,0
				l0,0C260.8,11.3,260.8,9.2,262.1,7.9z"/>
			<path class="st8" d="M148.5,121.6L148.5,121.6c1.4-1.4,3.5-1.4,4.8-0.1l0,0c1.3,1.3,1.3,3.4,0,4.8l-0.1,0.1
				c-1.3,1.3-3.4,1.3-4.8,0l0,0C147.1,125,147.1,122.9,148.5,121.6z"/>
		</g>
		<g>
			<path class="st9" d="M260.5,90.7L224,127.1c-1.3,1.3-3.4,1.3-4.8,0l0,0c-1.3-1.3-1.3-3.4,0-4.8l36.4-36.4c1.3-1.3,3.4-1.3,4.8,0
				l0,0C261.8,87.3,261.8,89.4,260.5,90.7z"/>
			<path class="st1" d="M325.1,16.4l11-11c1.3-1.3,3.4-1.3,4.8,0l0,0c1.3,1.3,1.3,3.4,0,4.8l-11,11c-1.3,1.3-3.4,1.3-4.8,0l0,0
				C323.8,19.9,323.8,17.7,325.1,16.4z"/>
			<path class="st8" d="M187.8,163.3l-11,11c-1.3,1.3-3.4,1.3-4.8,0l0,0c-1.3-1.3-1.3-3.4,0-4.8l11-11c1.3-1.3,3.4-1.3,4.8,0l0,0
				C189.2,159.9,189.2,162,187.8,163.3z"/>
			<path class="st1" d="M292.4,58.8l-36.4,36.4c-1.3,1.3-3.4,1.3-4.8,0l0,0c-1.3-1.3-1.3-3.4,0-4.8L287.6,54c1.3-1.3,3.4-1.3,4.8,0
				l0,0C293.7,55.4,293.7,57.5,292.4,58.8z"/>
			<path class="st1" d="M214.6,136.6L214.6,136.6c-1.4,1.4-3.5,1.4-4.8,0.1l0,0c-1.3-1.3-1.3-3.4,0-4.8l0.1-0.1
				c1.3-1.3,3.4-1.3,4.8,0l0,0C215.9,133.1,215.9,135.2,214.6,136.6z"/>
			<path class="st9" d="M262.9,88.3L262.9,88.3c-1.4,1.4-3.5,1.4-4.8,0.1l0,0c-1.3-1.3-1.3-3.4,0-4.8l0.1-0.1c1.3-1.3,3.4-1.3,4.8,0
				l0,0C264.2,84.9,264.2,87,262.9,88.3z"/>
			<path class="st9" d="M315.3,26.3L315.3,26.3c1.4-1.4,3.5-1.4,4.8-0.1l0,0c1.3,1.3,1.3,3.4,0,4.8l-0.1,0.1c-1.3,1.3-3.4,1.3-4.8,0
				l0,0C314,29.7,314,27.6,315.3,26.3z"/>
		</g>
		<g>
			<path class="st9" d="M153.3,92.9l36.4-36.4c1.3-1.3,3.4-1.3,4.8,0l0,0c1.3,1.3,1.3,3.4,0,4.8l-36.4,36.4c-1.3,1.3-3.4,1.3-4.8,0
				l0,0C151.9,96.4,151.9,94.2,153.3,92.9z"/>
			<path class="st9" d="M226.7,19.5l11-11c1.3-1.3,3.4-1.3,4.8,0l0,0c1.3,1.3,1.3,3.4,0,4.8l-11,11c-1.3,1.3-3.4,1.3-4.8,0l0,0
				C225.4,22.9,225.4,20.8,226.7,19.5z"/>
			<path class="st8" d="M136.5,109.6l36.4-36.4c1.3-1.3,3.4-1.3,4.8,0l0,0c1.3,1.3,1.3,3.4,0,4.8l-36.4,36.4c-1.3,1.3-3.4,1.3-4.8,0
				l0,0C135.2,113.1,135.2,111,136.5,109.6z"/>
			<path class="st8" d="M216.9,29.3L216.9,29.3c1.4-1.4,3.5-1.4,4.8-0.1l0,0c1.3,1.3,1.3,3.4,0,4.8l-0.1,0.1c-1.3,1.3-3.4,1.3-4.8,0
				l0,0C215.6,32.8,215.6,30.6,216.9,29.3z"/>
		</g>
		<g>
			<path class="st8" d="M284.7,18.8l-11,11c-1.3,1.3-3.4,1.3-4.8,0l0,0c-1.3-1.3-1.3-3.4,0-4.8l11-11c1.3-1.3,3.4-1.3,4.8,0l0,0
				C286,15.4,286,17.5,284.7,18.8z"/>
			<path class="st9" d="M176.2,127.3l-11,11c-1.3,1.3-3.4,1.3-4.8,0l0,0c-1.3-1.3-1.3-3.4,0-4.8l11-11c1.3-1.3,3.4-1.3,4.8,0l0,0
				C177.5,123.8,177.5,126,176.2,127.3z"/>
			<path class="st8" d="M246.5,57L210,93.4c-1.3,1.3-3.4,1.3-4.8,0l0,0c-1.3-1.3-1.3-3.4,0-4.8l36.4-36.4c1.3-1.3,3.4-1.3,4.8,0l0,0
				C247.8,53.6,247.8,55.7,246.5,57z"/>
			<path class="st8" d="M190.8,112.7L190.8,112.7c-1.4,1.4-3.5,1.4-4.8,0.1l0,0c-1.3-1.3-1.3-3.4,0-4.8l0.1-0.1
				c1.3-1.3,3.4-1.3,4.8,0l0,0C192.1,109.3,192.1,111.4,190.8,112.7z"/>
			<path class="st9" d="M261.8,41.7L261.8,41.7c-1.4,1.4-3.5,1.4-4.8,0.1l0,0c-1.3-1.3-1.3-3.4,0-4.8l0.1-0.1c1.3-1.3,3.4-1.3,4.8,0
				l0,0C263.1,38.2,263.1,40.4,261.8,41.7z"/>
		</g>
		<g>
			<path class="st9" d="M251.7,75.6l-11,11c-1.3,1.3-3.4,1.3-4.8,0l0,0c-1.3-1.3-1.3-3.4,0-4.8l11-11c1.3-1.3,3.4-1.3,4.8,0l0,0
				C253,72.2,253,74.3,251.7,75.6z"/>
			<path class="st1" d="M213.5,113.8l-36.4,36.4c-1.3,1.3-3.4,1.3-4.8,0l0,0c-1.3-1.3-1.3-3.4,0-4.8l36.4-36.4
				c1.3-1.3,3.4-1.3,4.8,0l0,0C214.8,110.4,214.8,112.5,213.5,113.8z"/>
			<path class="st9" d="M296.4,21.3L296.4,21.3c1.4-1.4,3.5-1.4,4.8-0.1l0,0c1.3,1.3,1.3,3.4,0,4.8l-0.1,0.1c-1.3,1.3-3.4,1.3-4.8,0
				l0,0C295.1,24.7,295.1,22.6,296.4,21.3z"/>
			<path class="st8" d="M261.6,65.8L261.6,65.8c-1.4,1.4-3.5,1.4-4.8,0.1l0,0c-1.3-1.3-1.3-3.4,0-4.8l0.1-0.1c1.3-1.3,3.4-1.3,4.8,0
				l0,0C262.9,62.3,262.9,64.4,261.6,65.8z"/>
		</g>
		<g>
			<path class="st9" d="M284.3,114.6L247.9,151c-1.3,1.3-3.4,1.3-4.8,0l0,0c-1.3-1.3-1.3-3.4,0-4.8l36.4-36.4c1.3-1.3,3.4-1.3,4.8,0
				l0,0C285.6,111.1,285.6,113.3,284.3,114.6z"/>
			<path class="st1" d="M349,40.3l11-11c1.3-1.3,3.4-1.3,4.8,0l0,0c1.3,1.3,1.3,3.4,0,4.8l-11,11c-1.3,1.3-3.4,1.3-4.8,0l0,0
				C347.7,43.7,347.7,41.6,349,40.3z"/>
			<path class="st8" d="M211.7,187.2l-11,11c-1.3,1.3-3.4,1.3-4.8,0l0,0c-1.3-1.3-1.3-3.4,0-4.8l11-11c1.3-1.3,3.4-1.3,4.8,0l0,0
				C213,183.7,213,185.9,211.7,187.2z"/>
			<path class="st1" d="M316.2,82.7l-36.4,36.4c-1.3,1.3-3.4,1.3-4.8,0l0,0c-1.3-1.3-1.3-3.4,0-4.8l36.4-36.4c1.3-1.3,3.4-1.3,4.8,0
				l0,0C317.5,79.2,317.5,81.4,316.2,82.7z"/>
			<path class="st1" d="M238.5,160.4L238.5,160.4c-1.4,1.4-3.5,1.4-4.8,0.1l0,0c-1.3-1.3-1.3-3.4,0-4.8l0.1-0.1
				c1.3-1.3,3.4-1.3,4.8,0l0,0C239.8,157,239.8,159.1,238.5,160.4z"/>
			<path class="st9" d="M286.7,112.2L286.7,112.2c-1.4,1.4-3.5,1.4-4.8,0.1l0,0c-1.3-1.3-1.3-3.4,0-4.8l0.1-0.1
				c1.3-1.3,3.4-1.3,4.8,0l0,0C288,108.7,288,110.8,286.7,112.2z"/>
			<path class="st9" d="M339.2,50.1L339.2,50.1c1.4-1.4,3.5-1.4,4.8-0.1l0,0c1.3,1.3,1.3,3.4,0,4.8l-0.1,0.1c-1.3,1.3-3.4,1.3-4.8,0
				l0,0C337.8,53.6,337.8,51.4,339.2,50.1z"/>
		</g>
		<g>
			<path class="st8" d="M320.4,54.6l-11,11c-1.3,1.3-3.4,1.3-4.8,0l0,0c-1.3-1.3-1.3-3.4,0-4.8l11-11c1.3-1.3,3.4-1.3,4.8,0l0,0
				C321.8,51.2,321.8,53.3,320.4,54.6z"/>
			<path class="st9" d="M212,163.1l-11,11c-1.3,1.3-3.4,1.3-4.8,0l0,0c-1.3-1.3-1.3-3.4,0-4.8l11-11c1.3-1.3,3.4-1.3,4.8,0l0,0
				C213.3,159.6,213.3,161.7,212,163.1z"/>
			<path class="st8" d="M282.2,92.8l-36.4,36.4c-1.3,1.3-3.4,1.3-4.8,0l0,0c-1.3-1.3-1.3-3.4,0-4.8L277.4,88c1.3-1.3,3.4-1.3,4.8,0
				l0,0C283.5,89.4,283.5,91.5,282.2,92.8z"/>
			<path class="st8" d="M226.5,148.5L226.5,148.5c-1.4,1.4-3.5,1.4-4.8,0.1l0,0c-1.3-1.3-1.3-3.4,0-4.8l0.1-0.1
				c1.3-1.3,3.4-1.3,4.8,0l0,0C227.9,145,227.9,147.2,226.5,148.5z"/>
			<path class="st9" d="M359,6.4L359,6.4c1.4-1.4,3.5-1.4,4.8-0.1l0,0c1.3,1.3,1.3,3.4,0,4.8l-0.1,0.1c-1.3,1.3-3.4,1.3-4.8,0l0,0
				C357.7,9.8,357.7,7.7,359,6.4z"/>
			<path class="st9" d="M297.6,77.5L297.6,77.5c-1.4,1.4-3.5,1.4-4.8,0.1l0,0c-1.3-1.3-1.3-3.4,0-4.8l0.1-0.1c1.3-1.3,3.4-1.3,4.8,0
				l0,0C298.9,74,298.9,76.1,297.6,77.5z"/>
		</g>
		<g>
			<path class="st9" d="M225.7,272l-11,11c-1.3,1.3-3.4,1.3-4.8,0l0,0c-1.3-1.3-1.3-3.4,0-4.8l11-11c1.3-1.3,3.4-1.3,4.8,0l0,0
				C227,268.5,227,270.7,225.7,272z"/>
			<path class="st1" d="M187.5,310.2l-36.4,36.4c-1.3,1.3-3.4,1.3-4.8,0l0,0c-1.3-1.3-1.3-3.4,0-4.8l36.4-36.4
				c1.3-1.3,3.4-1.3,4.8,0l0,0C188.8,306.8,188.8,308.9,187.5,310.2z"/>
			<path class="st9" d="M115.2,382.5l-36.4,36.4c-1.3,1.3-3.4,1.3-4.8,0l0,0c-1.3-1.3-1.3-3.4,0-4.8l36.4-36.4
				c1.3-1.3,3.4-1.3,4.8,0l0,0C116.5,379,116.5,381.2,115.2,382.5z"/>
			<path class="st8" d="M128.1,369.6l-29.2,29.2c-1.3,1.3-3.4,1.3-4.8,0l0,0c-1.3-1.3-1.3-3.4,0-4.8l29.2-29.2
				c1.3-1.3,3.4-1.3,4.8,0l0,0C129.4,366.1,129.4,368.3,128.1,369.6z"/>
			<path class="st1" d="M66.7,430.9L66.7,430.9c-1.4,1.4-3.5,1.4-4.8,0.1l0,0c-1.3-1.3-1.3-3.4,0-4.8l0.1-0.1c1.3-1.3,3.4-1.3,4.8,0
				l0,0C68.1,427.5,68.1,429.6,66.7,430.9z"/>
			<path class="st9" d="M111.4,386.3L111.4,386.3c-1.4,1.4-3.5,1.4-4.8,0.1l0,0c-1.3-1.3-1.3-3.4,0-4.8l0.1-0.1
				c1.3-1.3,3.4-1.3,4.8,0l0,0C112.7,382.8,112.7,385,111.4,386.3z"/>
			<path class="st8" d="M235.5,262.1L235.5,262.1c-1.4,1.4-3.5,1.4-4.8,0.1l0,0c-1.3-1.3-1.3-3.4,0-4.8l0.1-0.1
				c1.3-1.3,3.4-1.3,4.8,0l0,0C236.8,258.7,236.8,260.8,235.5,262.1z"/>
		</g>
		<g>
			<path class="st9" d="M147.4,316.8l36.4-36.4c1.3-1.3,3.4-1.3,4.8,0l0,0c1.3,1.3,1.3,3.4,0,4.8l-36.4,36.4c-1.3,1.3-3.4,1.3-4.8,0
				l0,0C146.1,320.3,146.1,318.2,147.4,316.8z"/>
			<path class="st8" d="M220,244.2l11-11c1.3-1.3,3.4-1.3,4.8,0l0,0c1.3,1.3,1.3,3.4,0,4.8l-11,11c-1.3,1.3-3.4,1.3-4.8,0l0,0
				C218.7,247.7,218.7,245.5,220,244.2z"/>
			<path class="st8" d="M51.3,412.9l36.4-36.4c1.3-1.3,3.4-1.3,4.8,0l0,0c1.3,1.3,1.3,3.4,0,4.8l-36.4,36.4c-1.3,1.3-3.4,1.3-4.8,0
				l0,0C50,416.3,50,414.2,51.3,412.9z"/>
			<path class="st1" d="M115.5,348.7l36.4-36.4c1.3-1.3,3.4-1.3,4.8,0l0,0c1.3,1.3,1.3,3.4,0,4.8l-36.4,36.4c-1.3,1.3-3.4,1.3-4.8,0
				l0,0C114.2,352.2,114.2,350,115.5,348.7z"/>
			<path class="st1" d="M193.2,271L193.2,271c1.4-1.4,3.5-1.4,4.8-0.1l0,0c1.3,1.3,1.3,3.4,0,4.8l-0.1,0.1c-1.3,1.3-3.4,1.3-4.8,0
				l0,0C191.9,274.4,191.9,272.3,193.2,271z"/>
			<path class="st9" d="M145,319.3L145,319.3c1.4-1.4,3.5-1.4,4.8-0.1l0,0c1.3,1.3,1.3,3.4,0,4.8l-0.1,0.1c-1.3,1.3-3.4,1.3-4.8,0
				l0,0C143.6,322.7,143.6,320.6,145,319.3z"/>
		</g>
		<g>
			<path class="st9" d="M122.4,318l36.4-36.4c1.3-1.3,3.4-1.3,4.8,0l0,0c1.3,1.3,1.3,3.4,0,4.8l-36.4,36.4c-1.3,1.3-3.4,1.3-4.8,0
				l0,0C121.1,321.4,121.1,319.3,122.4,318z"/>
			<path class="st9" d="M201.8,248.1l-11,11c-1.3,1.3-3.4,1.3-4.8,0l0,0c-1.3-1.3-1.3-3.4,0-4.8l11-11c1.3-1.3,3.4-1.3,4.8,0l0,0
				C203.1,244.7,203.1,246.8,201.8,248.1z"/>
			<path class="st1" d="M30,410.4l36.4-36.4c1.3-1.3,3.4-1.3,4.8,0l0,0c1.3,1.3,1.3,3.4,0,4.8l-36.4,36.4c-1.3,1.3-3.4,1.3-4.8,0
				l0,0C28.7,413.8,28.7,411.7,30,410.4z"/>
			<path class="st8" d="M90.5,349.9l36.4-36.4c1.3-1.3,3.4-1.3,4.8,0l0,0c1.3,1.3,1.3,3.4,0,4.8l-36.4,36.4c-1.3,1.3-3.4,1.3-4.8,0
				l0,0C89.2,353.3,89.2,351.2,90.5,349.9z"/>
			<path class="st9" d="M25.4,424.6L25.4,424.6c-1.4,1.4-3.5,1.4-4.8,0.1l0,0c-1.3-1.3-1.3-3.4,0-4.8l0.1-0.1c1.3-1.3,3.4-1.3,4.8,0
				l0,0C26.7,421.1,26.7,423.3,25.4,424.6z"/>
			<path class="st9" d="M94.7,345.6L94.7,345.6c1.4-1.4,3.5-1.4,4.8-0.1l0,0c1.3,1.3,1.3,3.4,0,4.8l-0.1,0.1c-1.3,1.3-3.4,1.3-4.8,0
				l0,0C93.4,349.1,93.4,346.9,94.7,345.6z"/>
			<path class="st8" d="M211.7,238.3L211.7,238.3c-1.4,1.4-3.5,1.4-4.8,0.1l0,0c-1.3-1.3-1.3-3.4,0-4.8l0.1-0.1
				c1.3-1.3,3.4-1.3,4.8,0l0,0C213,234.8,213,237,211.7,238.3z"/>
		</g>
		<g>
			<path class="st9" d="M52.2,373.9l-36.4,36.4c-1.3,1.3-3.4,1.3-4.8,0l0,0c-1.3-1.3-1.3-3.4,0-4.8l36.4-36.4c1.3-1.3,3.4-1.3,4.8,0
				l0,0C53.5,370.5,53.5,372.6,52.2,373.9z"/>
			<path class="st1" d="M154.9,271.2l-11,11c-1.3,1.3-3.4,1.3-4.8,0l0,0c-1.3-1.3-1.3-3.4,0-4.8l11-11c1.3-1.3,3.4-1.3,4.8,0l0,0
				C156.2,267.8,156.2,269.9,154.9,271.2z"/>
			<path class="st9" d="M183.9,232.6l11-11c1.3-1.3,3.4-1.3,4.8,0l0,0c1.3,1.3,1.3,3.4,0,4.8l-11,11c-1.3,1.3-3.4,1.3-4.8,0l0,0
				C182.6,236,182.6,233.9,183.9,232.6z"/>
			<path class="st8" d="M116.7,309.4l-36.4,36.4c-1.3,1.3-3.4,1.3-4.8,0l0,0c-1.3-1.3-1.3-3.4,0-4.8l36.4-36.4
				c1.3-1.3,3.4-1.3,4.8,0l0,0C118,306,118,308.1,116.7,309.4z"/>
			<path class="st1" d="M66.3,359.8l-36.4,36.4c-1.3,1.3-3.4,1.3-4.8,0l0,0c-1.3-1.3-1.3-3.4,0-4.8L61.5,355c1.3-1.3,3.4-1.3,4.8,0
				l0,0C67.7,356.3,67.7,358.5,66.3,359.8z"/>
			<path class="st8" d="M169.4,247.2L169.4,247.2c1.4-1.4,3.5-1.4,4.8-0.1l0,0c1.3,1.3,1.3,3.4,0,4.8l-0.1,0.1
				c-1.3,1.3-3.4,1.3-4.8,0l0,0C168,250.6,168,248.5,169.4,247.2z"/>
			<path class="st9" d="M36.9,389.2L36.9,389.2c-1.4,1.4-3.5,1.4-4.8,0.1l0,0c-1.3-1.3-1.3-3.4,0-4.8l0.1-0.1c1.3-1.3,3.4-1.3,4.8,0
				l0,0C38.2,385.8,38.2,387.9,36.9,389.2z"/>
			<path class="st9" d="M132,294.1L132,294.1c-1.4,1.4-3.5,1.4-4.8,0.1l0,0c-1.3-1.3-1.3-3.4,0-4.8l0.1-0.1c1.3-1.3,3.4-1.3,4.8,0
				l0,0C133.3,290.6,133.3,292.8,132,294.1z"/>
		</g>
		<g>
			<path class="st8" d="M226.2,285.7l11-11c1.3-1.3,3.4-1.3,4.8,0l0,0c1.3,1.3,1.3,3.4,0,4.8l-11,11c-1.3,1.3-3.4,1.3-4.8,0l0,0
				C224.9,289.2,224.9,287,226.2,285.7z"/>
			<path class="st1" d="M83.5,428.4L120,392c1.3-1.3,3.4-1.3,4.8,0l0,0c1.3,1.3,1.3,3.4,0,4.8l-36.4,36.4c-1.3,1.3-3.4,1.3-4.8,0
				l0,0C82.2,431.8,82.2,429.7,83.5,428.4z"/>
			<path class="st9" d="M155.8,356.1l36.4-36.4c1.3-1.3,3.4-1.3,4.8,0l0,0c1.3,1.3,1.3,3.4,0,4.8l-36.4,36.4c-1.3,1.3-3.4,1.3-4.8,0
				l0,0C154.5,359.5,154.5,357.4,155.8,356.1z"/>
			<path class="st8" d="M155.4,356.5l29.2-29.2c1.3-1.3,3.4-1.3,4.8,0l0,0c1.3,1.3,1.3,3.4,0,4.8l-29.2,29.2c-1.3,1.3-3.4,1.3-4.8,0
				l0,0C154.1,360,154.1,357.8,155.4,356.5z"/>
			<path class="st1" d="M211.6,300.3L211.6,300.3c1.4-1.4,3.5-1.4,4.8-0.1l0,0c1.3,1.3,1.3,3.4,0,4.8l-0.1,0.1
				c-1.3,1.3-3.4,1.3-4.8,0l0,0C210.3,303.7,210.3,301.6,211.6,300.3z"/>
			<path class="st9" d="M159.6,352.3L159.6,352.3c1.4-1.4,3.5-1.4,4.8-0.1l0,0c1.3,1.3,1.3,3.4,0,4.8l-0.1,0.1
				c-1.3,1.3-3.4,1.3-4.8,0l0,0C158.3,355.7,158.3,353.6,159.6,352.3z"/>
		</g>
		<g>
			<path class="st1" d="M188.3,347.4l11-11c1.3-1.3,3.4-1.3,4.8,0l0,0c1.3,1.3,1.3,3.4,0,4.8l-11,11c-1.3,1.3-3.4,1.3-4.8,0l0,0
				C187,350.9,187,348.7,188.3,347.4z"/>
			<path class="st9" d="M246.6,289.2l11-11c1.3-1.3,3.4-1.3,4.8,0l0,0c1.3,1.3,1.3,3.4,0,4.8l-11,11c-1.3,1.3-3.4,1.3-4.8,0l0,0
				C245.3,292.6,245.3,290.5,246.6,289.2z"/>
			<path class="st8" d="M212.7,323.1l36.4-36.4c1.3-1.3,3.4-1.3,4.8,0l0,0c1.3,1.3,1.3,3.4,0,4.8l-36.4,36.4c-1.3,1.3-3.4,1.3-4.8,0
				l0,0C211.4,326.5,211.4,324.4,212.7,323.1z"/>
			<path class="st1" d="M155.5,389.8l-36.4,36.4c-1.3,1.3-3.4,1.3-4.8,0l0,0c-1.3-1.3-1.3-3.4,0-4.8l36.4-36.4
				c1.3-1.3,3.4-1.3,4.8,0l0,0C156.9,386.4,156.9,388.5,155.5,389.8z"/>
			<path class="st9" d="M126.1,419.3L126.1,419.3c-1.4,1.4-3.5,1.4-4.8,0.1l0,0c-1.3-1.3-1.3-3.4,0-4.8l0.1-0.1
				c1.3-1.3,3.4-1.3,4.8,0l0,0C127.4,415.9,127.4,418,126.1,419.3z"/>
			<path class="st9" d="M178.5,357.3L178.5,357.3c1.4-1.4,3.5-1.4,4.8-0.1l0,0c1.3,1.3,1.3,3.4,0,4.8l-0.1,0.1
				c-1.3,1.3-3.4,1.3-4.8,0l0,0C177.2,360.7,177.2,358.6,178.5,357.3z"/>
		</g>
		<g>
			<path class="st8" d="M180.5,388.7l-36.4,36.4c-1.3,1.3-3.4,1.3-4.8,0l0,0c-1.3-1.3-1.3-3.4,0-4.8l36.4-36.4
				c1.3-1.3,3.4-1.3,4.8,0l0,0C181.8,385.3,181.8,387.4,180.5,388.7z"/>
			<path class="st8" d="M215.6,353.6l-11,11c-1.3,1.3-3.4,1.3-4.8,0l0,0c-1.3-1.3-1.3-3.4,0-4.8l11-11c1.3-1.3,3.4-1.3,4.8,0l0,0
				C216.9,350.2,216.9,352.3,215.6,353.6z"/>
			<path class="st1" d="M234.8,324.8l36.4-36.4c1.3-1.3,3.4-1.3,4.8,0l0,0c1.3,1.3,1.3,3.4,0,4.8l-36.4,36.4c-1.3,1.3-3.4,1.3-4.8,0
				l0,0C233.5,328.3,233.5,326.1,234.8,324.8z"/>
			<path class="st9" d="M230.2,339L230.2,339c-1.4,1.4-3.5,1.4-4.8,0.1l0,0c-1.3-1.3-1.3-3.4,0-4.8l0.1-0.1c1.3-1.3,3.4-1.3,4.8,0
				l0,0C231.5,335.6,231.5,337.7,230.2,339z"/>
			<path class="st9" d="M176.3,392.9L176.3,392.9c-1.4,1.4-3.5,1.4-4.8,0.1l0,0c-1.3-1.3-1.3-3.4,0-4.8l0.1-0.1
				c1.3-1.3,3.4-1.3,4.8,0l0,0C177.6,389.5,177.6,391.6,176.3,392.9z"/>
		</g>
		<g>
			<path class="st9" d="M218.8,364.6l36.4-36.4c1.3-1.3,3.4-1.3,4.8,0l0,0c1.3,1.3,1.3,3.4,0,4.8l-36.4,36.4c-1.3,1.3-3.4,1.3-4.8,0
				l0,0C217.5,368.1,217.5,365.9,218.8,364.6z"/>
			<path class="st8" d="M195.6,397.5l-11,11c-1.3,1.3-3.4,1.3-4.8,0l0,0c-1.3-1.3-1.3-3.4,0-4.8l11-11c1.3-1.3,3.4-1.3,4.8,0l0,0
				C196.9,394.1,196.9,396.2,195.6,397.5z"/>
			<path class="st1" d="M204.7,378.8l36.4-36.4c1.3-1.3,3.4-1.3,4.8,0l0,0c1.3,1.3,1.3,3.4,0,4.8l-36.4,36.4c-1.3,1.3-3.4,1.3-4.8,0
				l0,0C203.4,382.2,203.4,380.1,204.7,378.8z"/>
			<path class="st9" d="M234.1,349.3L234.1,349.3c1.4-1.4,3.5-1.4,4.8-0.1l0,0c1.3,1.3,1.3,3.4,0,4.8l-0.1,0.1
				c-1.3,1.3-3.4,1.3-4.8,0l0,0C232.8,352.8,232.8,350.6,234.1,349.3z"/>
			<path class="st9" d="M172.7,420.4L172.7,420.4c-1.4,1.4-3.5,1.4-4.8,0.1l0,0c-1.3-1.3-1.3-3.4,0-4.8l0.1-0.1
				c1.3-1.3,3.4-1.3,4.8,0l0,0C174,416.9,174,419.1,172.7,420.4z"/>
			<path class="st1" d="M267.7,315.8l11-11c1.3-1.3,3.4-1.3,4.8,0l0,0c1.3,1.3,1.3,3.4,0,4.8l-11,11c-1.3,1.3-3.4,1.3-4.8,0l0,0
				C266.4,319.2,266.4,317.1,267.7,315.8z"/>
			<path class="st9" d="M290.6,292.9L290.6,292.9c1.4-1.4,3.5-1.4,4.8-0.1l0,0c1.3,1.3,1.3,3.4,0,4.8l-0.1,0.1
				c-1.3,1.3-3.4,1.3-4.8,0l0,0C289.2,296.4,289.2,294.2,290.6,292.9z"/>
		</g>
		<g>
			<path class="st9" d="M321,367.3l-11,11c-1.3,1.3-3.4,1.3-4.8,0l0,0c-1.3-1.3-1.3-3.4,0-4.8l11-11c1.3-1.3,3.4-1.3,4.8,0l0,0
				C322.3,363.8,322.3,365.9,321,367.3z"/>
			<path class="st8" d="M330.8,357.4L330.8,357.4c-1.4,1.4-3.5,1.4-4.8,0.1l0,0c-1.3-1.3-1.3-3.4,0-4.8l0.1-0.1
				c1.3-1.3,3.4-1.3,4.8,0l0,0C332.1,354,332.1,356.1,330.8,357.4z"/>
		</g>
		<g>
			<path class="st8" d="M315.4,339.6l11-11c1.3-1.3,3.4-1.3,4.8,0l0,0c1.3,1.3,1.3,3.4,0,4.8l-11,11c-1.3,1.3-3.4,1.3-4.8,0l0,0
				C314.1,343.1,314.1,340.9,315.4,339.6z"/>
			<path class="st1" d="M288.6,366.4L288.6,366.4c1.4-1.4,3.5-1.4,4.8-0.1l0,0c1.3,1.3,1.3,3.4,0,4.8l-0.1,0.1
				c-1.3,1.3-3.4,1.3-4.8,0l0,0C287.3,369.8,287.3,367.7,288.6,366.4z"/>
			<path class="st9" d="M240.4,414.7L240.4,414.7c1.4-1.4,3.5-1.4,4.8-0.1l0,0c1.3,1.3,1.3,3.4,0,4.8l-0.1,0.1
				c-1.3,1.3-3.4,1.3-4.8,0l0,0C239,418.1,239,416,240.4,414.7z"/>
		</g>
		<g>
			<path class="st9" d="M217.8,413.4l36.4-36.4c1.3-1.3,3.4-1.3,4.8,0l0,0c1.3,1.3,1.3,3.4,0,4.8l-36.4,36.4c-1.3,1.3-3.4,1.3-4.8,0
				l0,0C216.5,416.8,216.5,414.7,217.8,413.4z"/>
			<path class="st9" d="M297.2,343.5l-11,11c-1.3,1.3-3.4,1.3-4.8,0l0,0c-1.3-1.3-1.3-3.4,0-4.8l11-11c1.3-1.3,3.4-1.3,4.8,0l0,0
				C298.5,340.1,298.5,342.2,297.2,343.5z"/>
			<path class="st8" d="M307.1,333.7L307.1,333.7c-1.4,1.4-3.5,1.4-4.8,0.1l0,0c-1.3-1.3-1.3-3.4,0-4.8l0.1-0.1
				c1.3-1.3,3.4-1.3,4.8,0l0,0C308.4,330.2,308.4,332.4,307.1,333.7z"/>
		</g>
		<g>
			<path class="st1" d="M250.3,366.6l-11,11c-1.3,1.3-3.4,1.3-4.8,0l0,0c-1.3-1.3-1.3-3.4,0-4.8l11-11c1.3-1.3,3.4-1.3,4.8,0l0,0
				C251.6,363.2,251.6,365.3,250.3,366.6z"/>
			<path class="st9" d="M279.3,328l11-11c1.3-1.3,3.4-1.3,4.8,0l0,0c1.3,1.3,1.3,3.4,0,4.8l-11,11c-1.3,1.3-3.4,1.3-4.8,0l0,0
				C278,331.4,278,329.3,279.3,328z"/>
			<path class="st8" d="M264.8,342.6L264.8,342.6c1.4-1.4,3.5-1.4,4.8-0.1l0,0c1.3,1.3,1.3,3.4,0,4.8l-0.1,0.1
				c-1.3,1.3-3.4,1.3-4.8,0l0,0C263.4,346,263.4,343.9,264.8,342.6z"/>
			<path class="st9" d="M227.4,389.5L227.4,389.5c-1.4,1.4-3.5,1.4-4.8,0.1l0,0c-1.3-1.3-1.3-3.4,0-4.8l0.1-0.1
				c1.3-1.3,3.4-1.3,4.8,0l0,0C228.8,386,228.8,388.2,227.4,389.5z"/>
		</g>
		<g>
			<path class="st8" d="M333.5,393.1l11-11c1.3-1.3,3.4-1.3,4.8,0l0,0c1.3,1.3,1.3,3.4,0,4.8l-11,11c-1.3,1.3-3.4,1.3-4.8,0l0,0
				C332.2,396.5,332.2,394.4,333.5,393.1z"/>
			<path class="st1" d="M318.9,407.6L318.9,407.6c1.4-1.4,3.5-1.4,4.8-0.1l0,0c1.3,1.3,1.3,3.4,0,4.8l-0.1,0.1
				c-1.3,1.3-3.4,1.3-4.8,0l0,0C317.6,411.1,317.6,408.9,318.9,407.6z"/>
		</g>
		<path class="st9" d="M377.8,420.3l11-11c1.3-1.3,3.4-1.3,4.8,0l0,0c1.3,1.3,1.3,3.4,0,4.8l-11,11c-1.3,1.3-3.4,1.3-4.8,0l0,0
			C376.5,423.8,376.5,421.6,377.8,420.3z"/>
		<g>
			<path class="st1" d="M306.4,396.4l36.4-36.4c1.3-1.3,3.4-1.3,4.8,0l0,0c1.3,1.3,1.3,3.4,0,4.8l-36.4,36.4c-1.3,1.3-3.4,1.3-4.8,0
				l0,0C305,399.8,305,397.7,306.4,396.4z"/>
			<path class="st9" d="M301.7,410.6L301.7,410.6c-1.4,1.4-3.5,1.4-4.8,0.1l0,0c-1.3-1.3-1.3-3.4,0-4.8l0.1-0.1
				c1.3-1.3,3.4-1.3,4.8,0l0,0C303,407.1,303,409.3,301.7,410.6z"/>
		</g>
		<g>
			<path class="st1" d="M351.2,399.3l11-11c1.3-1.3,3.4-1.3,4.8,0l0,0c1.3,1.3,1.3,3.4,0,4.8l-11,11c-1.3,1.3-3.4,1.3-4.8,0l0,0
				C349.9,402.7,349.9,400.6,351.2,399.3z"/>
			<path class="st9" d="M374,376.4L374,376.4c1.4-1.4,3.5-1.4,4.8-0.1l0,0c1.3,1.3,1.3,3.4,0,4.8l-0.1,0.1c-1.3,1.3-3.4,1.3-4.8,0
				l0,0C372.7,379.8,372.7,377.7,374,376.4z"/>
		</g>
		<g>
			<path class="st8" d="M357.4,416.9l11-11c1.3-1.3,3.4-1.3,4.8,0l0,0c1.3,1.3,1.3,3.4,0,4.8l-11,11c-1.3,1.3-3.4,1.3-4.8,0l0,0
				C356.1,420.3,356.1,418.2,357.4,416.9z"/>
			<path class="st1" d="M376.6,397.7l11-11c1.3-1.3,3.4-1.3,4.8,0l0,0c1.3,1.3,1.3,3.4,0,4.8l-11,11c-1.3,1.3-3.4,1.3-4.8,0l0,0
				C375.3,401.1,375.3,399,376.6,397.7z"/>
			<path class="st1" d="M348.1,426.2L348.1,426.2c1.4-1.4,3.5-1.4,4.8-0.1l0,0c1.3,1.3,1.3,3.4,0,4.8l-0.1,0.1
				c-1.3,1.3-3.4,1.3-4.8,0l0,0C346.8,429.6,346.8,427.5,348.1,426.2z"/>
		</g>
		<g>
			<path class="st9" d="M409.8,412.2L409.8,412.2c1.4-1.4,3.5-1.4,4.8-0.1l0,0c1.3,1.3,1.3,3.4,0,4.8l-0.1,0.1
				c-1.3,1.3-3.4,1.3-4.8,0l0,0C408.5,415.6,408.5,413.5,409.8,412.2z"/>
		</g>
		<g>
			<path class="st8" d="M278.7,218.9l-11,11c-1.3,1.3-3.4,1.3-4.8,0l0,0c-1.3-1.3-1.3-3.4,0-4.8l11-11c1.3-1.3,3.4-1.3,4.8,0l0,0
				C280.1,215.5,280.1,217.6,278.7,218.9z"/>
			<path class="st1" d="M421.4,76.3L385,112.7c-1.3,1.3-3.4,1.3-4.8,0l0,0c-1.3-1.3-1.3-3.4,0-4.8l36.4-36.4c1.3-1.3,3.4-1.3,4.8,0
				l0,0C422.7,72.8,422.7,75,421.4,76.3z"/>
			<path class="st9" d="M349.1,148.6L312.7,185c-1.3,1.3-3.4,1.3-4.8,0l0,0c-1.3-1.3-1.3-3.4,0-4.8l36.4-36.4c1.3-1.3,3.4-1.3,4.8,0
				l0,0C350.4,145.1,350.4,147.3,349.1,148.6z"/>
			<path class="st8" d="M362,135.7l-29.2,29.2c-1.3,1.3-3.4,1.3-4.8,0l0,0c-1.3-1.3-1.3-3.4,0-4.8l29.2-29.2c1.3-1.3,3.4-1.3,4.8,0
				l0,0C363.3,132.2,363.3,134.4,362,135.7z"/>
			<path class="st1" d="M293.3,204.4L293.3,204.4c-1.4,1.4-3.5,1.4-4.8,0.1l0,0c-1.3-1.3-1.3-3.4,0-4.8l0.1-0.1
				c1.3-1.3,3.4-1.3,4.8,0l0,0C294.6,200.9,294.6,203,293.3,204.4z"/>
			<path class="st9" d="M345.3,152.4L345.3,152.4c-1.4,1.4-3.5,1.4-4.8,0.1l0,0c-1.3-1.3-1.3-3.4,0-4.8l0.1-0.1
				c1.3-1.3,3.4-1.3,4.8,0l0,0C346.6,148.9,346.6,151,345.3,152.4z"/>
		</g>
		<g>
			<path class="st9" d="M381.3,82.9l36.4-36.4c1.3-1.3,3.4-1.3,4.8,0l0,0c1.3,1.3,1.3,3.4,0,4.8l-36.4,36.4c-1.3,1.3-3.4,1.3-4.8,0
				l0,0C380,86.4,380,84.2,381.3,82.9z"/>
			<path class="st1" d="M260.8,203.4l11-11c1.3-1.3,3.4-1.3,4.8,0l0,0c1.3,1.3,1.3,3.4,0,4.8l-11,11c-1.3,1.3-3.4,1.3-4.8,0l0,0
				C259.5,206.8,259.5,204.7,260.8,203.4z"/>
			<path class="st8" d="M285.2,179l36.4-36.4c1.3-1.3,3.4-1.3,4.8,0l0,0c1.3,1.3,1.3,3.4,0,4.8L290,183.8c-1.3,1.3-3.4,1.3-4.8,0
				l0,0C283.9,182.4,283.9,180.3,285.2,179z"/>
			<path class="st1" d="M349.4,114.8l36.4-36.4c1.3-1.3,3.4-1.3,4.8,0l0,0c1.3,1.3,1.3,3.4,0,4.8l-36.4,36.4c-1.3,1.3-3.4,1.3-4.8,0
				l0,0C348.1,118.3,348.1,116.1,349.4,114.8z"/>
			<path class="st1" d="M427.1,37.1L427.1,37.1c1.4-1.4,3.5-1.4,4.8-0.1l0,0c1.3,1.3,1.3,3.4,0,4.8l-0.1,0.1c-1.3,1.3-3.4,1.3-4.8,0
				l0,0C425.8,40.5,425.8,38.4,427.1,37.1z"/>
			<path class="st9" d="M378.9,85.4L378.9,85.4c1.4-1.4,3.5-1.4,4.8-0.1l0,0c1.3,1.3,1.3,3.4,0,4.8l-0.1,0.1c-1.3,1.3-3.4,1.3-4.8,0
				l0,0C377.5,88.8,377.5,86.7,378.9,85.4z"/>
			<path class="st9" d="M251,213.2L251,213.2c1.4-1.4,3.5-1.4,4.8-0.1l0,0c1.3,1.3,1.3,3.4,0,4.8l-0.1,0.1c-1.3,1.3-3.4,1.3-4.8,0
				l0,0C249.7,216.7,249.7,214.5,251,213.2z"/>
		</g>
		<g>
			<path class="st9" d="M356.3,84.1l36.4-36.4c1.3-1.3,3.4-1.3,4.8,0l0,0c1.3,1.3,1.3,3.4,0,4.8l-36.4,36.4c-1.3,1.3-3.4,1.3-4.8,0
				l0,0C355,87.5,355,85.4,356.3,84.1z"/>
			<path class="st9" d="M428.9,21.1l-11,11c-1.3,1.3-3.4,1.3-4.8,0l0,0c-1.3-1.3-1.3-3.4,0-4.8l11-11c1.3-1.3,3.4-1.3,4.8,0l0,0
				C430.2,17.7,430.2,19.8,428.9,21.1z"/>
			<path class="st8" d="M244.7,205.2l-11,11c-1.3,1.3-3.4,1.3-4.8,0l0,0c-1.3-1.3-1.3-3.4,0-4.8l11-11c1.3-1.3,3.4-1.3,4.8,0l0,0
				C246,201.8,246,203.9,244.7,205.2z"/>
			<path class="st1" d="M263.9,176.4l36.4-36.4c1.3-1.3,3.4-1.3,4.8,0l0,0c1.3,1.3,1.3,3.4,0,4.8l-36.4,36.4c-1.3,1.3-3.4,1.3-4.8,0
				l0,0C262.6,179.9,262.6,177.8,263.9,176.4z"/>
			<path class="st8" d="M324.4,115.9l36.4-36.4c1.3-1.3,3.4-1.3,4.8,0l0,0c1.3,1.3,1.3,3.4,0,4.8l-36.4,36.4c-1.3,1.3-3.4,1.3-4.8,0
				l0,0C323.1,119.4,323.1,117.3,324.4,115.9z"/>
			<path class="st9" d="M259.3,190.7L259.3,190.7c-1.4,1.4-3.5,1.4-4.8,0.1l0,0c-1.3-1.3-1.3-3.4,0-4.8l0.1-0.1
				c1.3-1.3,3.4-1.3,4.8,0l0,0C260.6,187.2,260.6,189.4,259.3,190.7z"/>
			<path class="st9" d="M328.6,111.7L328.6,111.7c1.4-1.4,3.5-1.4,4.8-0.1l0,0c1.3,1.3,1.3,3.4,0,4.8l-0.1,0.1
				c-1.3,1.3-3.4,1.3-4.8,0l0,0C327.3,115.2,327.3,113,328.6,111.7z"/>
		</g>
		<g>
			<path class="st9" d="M286.1,140l-36.4,36.4c-1.3,1.3-3.4,1.3-4.8,0l0,0c-1.3-1.3-1.3-3.4,0-4.8l36.4-36.4c1.3-1.3,3.4-1.3,4.8,0
				l0,0C287.4,136.6,287.4,138.7,286.1,140z"/>
			<path class="st1" d="M388.8,37.3l-11,11c-1.3,1.3-3.4,1.3-4.8,0l0,0c-1.3-1.3-1.3-3.4,0-4.8l11-11c1.3-1.3,3.4-1.3,4.8,0l0,0
				C390.1,33.9,390.1,36,388.8,37.3z"/>
			<path class="st8" d="M350.6,75.5l-36.4,36.4c-1.3,1.3-3.4,1.3-4.8,0l0,0c-1.3-1.3-1.3-3.4,0-4.8l36.4-36.4c1.3-1.3,3.4-1.3,4.8,0
				l0,0C351.9,72.1,351.9,74.2,350.6,75.5z"/>
			<path class="st1" d="M300.3,125.9l-36.4,36.4c-1.3,1.3-3.4,1.3-4.8,0l0,0c-1.3-1.3-1.3-3.4,0-4.8l36.4-36.4
				c1.3-1.3,3.4-1.3,4.8,0l0,0C301.6,122.4,301.6,124.5,300.3,125.9z"/>
			<path class="st8" d="M403.3,13.2L403.3,13.2c1.4-1.4,3.5-1.4,4.8-0.1l0,0c1.3,1.3,1.3,3.4,0,4.8l-0.1,0.1c-1.3,1.3-3.4,1.3-4.8,0
				l0,0C402,16.7,402,14.6,403.3,13.2z"/>
			<path class="st9" d="M270.8,155.3L270.8,155.3c-1.4,1.4-3.5,1.4-4.8,0.1l0,0c-1.3-1.3-1.3-3.4,0-4.8l0.1-0.1
				c1.3-1.3,3.4-1.3,4.8,0l0,0C272.1,151.9,272.1,154,270.8,155.3z"/>
			<path class="st9" d="M365.9,60.2L365.9,60.2c-1.4,1.4-3.5,1.4-4.8,0.1l0,0c-1.3-1.3-1.3-3.4,0-4.8l0.1-0.1c1.3-1.3,3.4-1.3,4.8,0
				l0,0C367.3,56.7,367.3,58.9,365.9,60.2z"/>
			<path class="st1" d="M237.2,188.9l-11,11c-1.3,1.3-3.4,1.3-4.8,0l0,0c-1.3-1.3-1.3-3.4,0-4.8l11-11c1.3-1.3,3.4-1.3,4.8,0l0,0
				C238.5,185.4,238.5,187.6,237.2,188.9z"/>
			<path class="st9" d="M214.4,211.7L214.4,211.7c-1.4,1.4-3.5,1.4-4.8,0.1l0,0c-1.3-1.3-1.3-3.4,0-4.8l0.1-0.1
				c1.3-1.3,3.4-1.3,4.8,0l0,0C215.7,208.3,215.7,210.4,214.4,211.7z"/>
		</g>
		<g>
			<path class="st9" d="M348.8,172.7l-11,11c-1.3,1.3-3.4,1.3-4.8,0l0,0c-1.3-1.3-1.3-3.4,0-4.8l11-11c1.3-1.3,3.4-1.3,4.8,0l0,0
				C350.1,169.2,350.1,171.4,348.8,172.7z"/>
			<path class="st9" d="M262.9,258.6l-11,11c-1.3,1.3-3.4,1.3-4.8,0l0,0c-1.3-1.3-1.3-3.4,0-4.8l11-11c1.3-1.3,3.4-1.3,4.8,0l0,0
				C264.2,255.2,264.2,257.3,262.9,258.6z"/>
			<path class="st1" d="M310.6,210.9l-36.4,36.4c-1.3,1.3-3.4,1.3-4.8,0l0,0c-1.3-1.3-1.3-3.4,0-4.8l36.4-36.4
				c1.3-1.3,3.4-1.3,4.8,0l0,0C311.9,207.5,311.9,209.6,310.6,210.9z"/>
			<path class="st9" d="M389.7,122.2l36.4-36.4c1.3-1.3,3.4-1.3,4.8,0l0,0c1.3,1.3,1.3,3.4,0,4.8L394.5,127c-1.3,1.3-3.4,1.3-4.8,0
				l0,0C388.4,125.6,388.4,123.5,389.7,122.2z"/>
			<path class="st8" d="M389.3,122.6l29.2-29.2c1.3-1.3,3.4-1.3,4.8,0l0,0c1.3,1.3,1.3,3.4,0,4.8l-29.2,29.2c-1.3,1.3-3.4,1.3-4.8,0
				l0,0C388,126.1,388,123.9,389.3,122.6z"/>
			<path class="st9" d="M393.5,118.4L393.5,118.4c1.4-1.4,3.5-1.4,4.8-0.1l0,0c1.3,1.3,1.3,3.4,0,4.8l-0.1,0.1
				c-1.3,1.3-3.4,1.3-4.8,0l0,0C392.2,121.8,392.2,119.7,393.5,118.4z"/>
			<path class="st8" d="M358.7,162.8L358.7,162.8c-1.4,1.4-3.5,1.4-4.8,0.1l0,0c-1.3-1.3-1.3-3.4,0-4.8l0.1-0.1
				c1.3-1.3,3.4-1.3,4.8,0l0,0C360,159.4,360,161.5,358.7,162.8z"/>
		</g>
		<g>
			<path class="st9" d="M357.6,187.8l-36.4,36.4c-1.3,1.3-3.4,1.3-4.8,0l0,0c-1.3-1.3-1.3-3.4,0-4.8l36.4-36.4
				c1.3-1.3,3.4-1.3,4.8,0l0,0C358.9,184.4,358.9,186.5,357.6,187.8z"/>
			<path class="st1" d="M415.3,120.5l11-11c1.3-1.3,3.4-1.3,4.8,0l0,0c1.3,1.3,1.3,3.4,0,4.8l-11,11c-1.3,1.3-3.4,1.3-4.8,0l0,0
				C414,123.9,414,121.8,415.3,120.5z"/>
			<path class="st8" d="M284.9,260.4l-11,11c-1.3,1.3-3.4,1.3-4.8,0l0,0c-1.3-1.3-1.3-3.4,0-4.8l11-11c1.3-1.3,3.4-1.3,4.8,0l0,0
				C286.2,257,286.2,259.1,284.9,260.4z"/>
			<path class="st1" d="M389.4,155.9L353,192.3c-1.3,1.3-3.4,1.3-4.8,0l0,0c-1.3-1.3-1.3-3.4,0-4.8l36.4-36.4c1.3-1.3,3.4-1.3,4.8,0
				l0,0C390.8,152.5,390.8,154.6,389.4,155.9z"/>
			<path class="st1" d="M311.7,233.7L311.7,233.7c-1.4,1.4-3.5,1.4-4.8,0.1l0,0c-1.3-1.3-1.3-3.4,0-4.8l0.1-0.1
				c1.3-1.3,3.4-1.3,4.8,0l0,0C313,230.2,313,232.3,311.7,233.7z"/>
			<path class="st9" d="M360,185.4L360,185.4c-1.4,1.4-3.5,1.4-4.8,0.1l0,0c-1.3-1.3-1.3-3.4,0-4.8l0.1-0.1c1.3-1.3,3.4-1.3,4.8,0
				l0,0C361.3,182,361.3,184.1,360,185.4z"/>
			<path class="st9" d="M405.4,130.3L405.4,130.3c1.4-1.4,3.5-1.4,4.8-0.1l0,0c1.3,1.3,1.3,3.4,0,4.8l-0.1,0.1
				c-1.3,1.3-3.4,1.3-4.8,0l0,0C404.1,133.8,404.1,131.6,405.4,130.3z"/>
		</g>
		<g>
			<path class="st9" d="M382.5,186.7l-36.4,36.4c-1.3,1.3-3.4,1.3-4.8,0l0,0c-1.3-1.3-1.3-3.4,0-4.8l36.4-36.4
				c1.3-1.3,3.4-1.3,4.8,0l0,0C383.8,183.3,383.8,185.4,382.5,186.7z"/>
			<path class="st9" d="M309.1,260.2l-11,11c-1.3,1.3-3.4,1.3-4.8,0l0,0c-1.3-1.3-1.3-3.4,0-4.8l11-11c1.3-1.3,3.4-1.3,4.8,0l0,0
				C310.4,256.7,310.4,258.8,309.1,260.2z"/>
			<path class="st8" d="M414.4,154.8L378,191.2c-1.3,1.3-3.4,1.3-4.8,0l0,0c-1.3-1.3-1.3-3.4,0-4.8l36.4-36.4c1.3-1.3,3.4-1.3,4.8,0
				l0,0C415.7,151.4,415.7,153.5,414.4,154.8z"/>
			<path class="st9" d="M410.2,159L410.2,159c-1.4,1.4-3.5,1.4-4.8,0.1l0,0c-1.3-1.3-1.3-3.4,0-4.8l0.1-0.1c1.3-1.3,3.4-1.3,4.8,0
				l0,0C411.5,155.6,411.5,157.7,410.2,159z"/>
			<path class="st8" d="M318.9,250.3L318.9,250.3c-1.4,1.4-3.5,1.4-4.8,0.1l0,0c-1.3-1.3-1.3-3.4,0-4.8l0.1-0.1
				c1.3-1.3,3.4-1.3,4.8,0l0,0C320.2,246.9,320.2,249,318.9,250.3z"/>
		</g>
		<g>
			<path class="st8" d="M429.5,163.6l-11,11c-1.3,1.3-3.4,1.3-4.8,0l0,0c-1.3-1.3-1.3-3.4,0-4.8l11-11c1.3-1.3,3.4-1.3,4.8,0l0,0
				C430.8,160.2,430.8,162.3,429.5,163.6z"/>
			<path class="st9" d="M321,272.1l-11,11c-1.3,1.3-3.4,1.3-4.8,0l0,0c-1.3-1.3-1.3-3.4,0-4.8l11-11c1.3-1.3,3.4-1.3,4.8,0l0,0
				C322.3,268.6,322.3,270.8,321,272.1z"/>
			<path class="st8" d="M391.2,201.8l-36.4,36.4c-1.3,1.3-3.4,1.3-4.8,0l0,0c-1.3-1.3-1.3-3.4,0-4.8l36.4-36.4
				c1.3-1.3,3.4-1.3,4.8,0l0,0C392.6,198.4,392.6,200.5,391.2,201.8z"/>
			<path class="st8" d="M335.6,257.5L335.6,257.5c-1.4,1.4-3.5,1.4-4.8,0.1l0,0c-1.3-1.3-1.3-3.4,0-4.8l0.1-0.1
				c1.3-1.3,3.4-1.3,4.8,0l0,0C336.9,254.1,336.9,256.2,335.6,257.5z"/>
			<path class="st9" d="M406.6,186.5L406.6,186.5c-1.4,1.4-3.5,1.4-4.8,0.1l0,0c-1.3-1.3-1.3-3.4,0-4.8l0.1-0.1
				c1.3-1.3,3.4-1.3,4.8,0l0,0C407.9,183,407.9,185.2,406.6,186.5z"/>
		</g>
		<g>
			<path class="st8" d="M374,314.2l-11,11c-1.3,1.3-3.4,1.3-4.8,0l0,0c-1.3-1.3-1.3-3.4,0-4.8l11-11c1.3-1.3,3.4-1.3,4.8,0l0,0
				C375.3,310.8,375.3,312.9,374,314.2z"/>
			<path class="st1" d="M352.6,335.6L352.6,335.6c-1.4,1.4-3.5,1.4-4.8,0.1l0,0c-1.3-1.3-1.3-3.4,0-4.8l0.1-0.1
				c1.3-1.3,3.4-1.3,4.8,0l0,0C353.9,332.2,353.9,334.3,352.6,335.6z"/>
		</g>
		<g>
			<path class="st8" d="M375.5,312.7l-11,11c-1.3,1.3-3.4,1.3-4.8,0l0,0c-1.3-1.3-1.3-3.4,0-4.8l11-11c1.3-1.3,3.4-1.3,4.8,0l0,0
				C376.8,309.3,376.8,311.4,375.5,312.7z"/>
			<path class="st1" d="M398.3,289.9L398.3,289.9c-1.4,1.4-3.5,1.4-4.8,0.1l0,0c-1.3-1.3-1.3-3.4,0-4.8l0.1-0.1
				c1.3-1.3,3.4-1.3,4.8,0l0,0C399.6,286.5,399.6,288.6,398.3,289.9z"/>
		</g>
		<g>
			<path class="st1" d="M356.2,298.8l11-11c1.3-1.3,3.4-1.3,4.8,0l0,0c1.3,1.3,1.3,3.4,0,4.8l-11,11c-1.3,1.3-3.4,1.3-4.8,0l0,0
				C354.9,302.2,354.9,300.1,356.2,298.8z"/>
			<path class="st8" d="M380.6,274.4L417,238c1.3-1.3,3.4-1.3,4.8,0l0,0c1.3,1.3,1.3,3.4,0,4.8l-36.4,36.4c-1.3,1.3-3.4,1.3-4.8,0
				l0,0C379.3,277.8,379.3,275.7,380.6,274.4z"/>
			<path class="st9" d="M346.4,308.6L346.4,308.6c1.4-1.4,3.5-1.4,4.8-0.1l0,0c1.3,1.3,1.3,3.4,0,4.8l-0.1,0.1
				c-1.3,1.3-3.4,1.3-4.8,0l0,0C345.1,312.1,345.1,309.9,346.4,308.6z"/>
		</g>
		<g>
			<path class="st8" d="M340.1,300.6l-11,11c-1.3,1.3-3.4,1.3-4.8,0l0,0c-1.3-1.3-1.3-3.4,0-4.8l11-11c1.3-1.3,3.4-1.3,4.8,0l0,0
				C341.4,297.2,341.4,299.3,340.1,300.6z"/>
			<path class="st1" d="M359.3,271.8l36.4-36.4c1.3-1.3,3.4-1.3,4.8,0l0,0c1.3,1.3,1.3,3.4,0,4.8l-36.4,36.4c-1.3,1.3-3.4,1.3-4.8,0
				l0,0C358,275.3,358,273.2,359.3,271.8z"/>
			<path class="st9" d="M354.7,286.1L354.7,286.1c-1.4,1.4-3.5,1.4-4.8,0.1l0,0c-1.3-1.3-1.3-3.4,0-4.8l0.1-0.1
				c1.3-1.3,3.4-1.3,4.8,0l0,0C356,282.6,356,284.8,354.7,286.1z"/>
			<path class="st9" d="M424.1,207.1L424.1,207.1c1.4-1.4,3.5-1.4,4.8-0.1l0,0c1.3,1.3,1.3,3.4,0,4.8l-0.1,0.1
				c-1.3,1.3-3.4,1.3-4.8,0l0,0C422.7,210.6,422.7,208.4,424.1,207.1z"/>
		</g>
		<g>
			<path class="st9" d="M381.5,235.4l-36.4,36.4c-1.3,1.3-3.4,1.3-4.8,0l0,0c-1.3-1.3-1.3-3.4,0-4.8l36.4-36.4
				c1.3-1.3,3.4-1.3,4.8,0l0,0C382.8,232,382.8,234.1,381.5,235.4z"/>
			<path class="st1" d="M395.7,221.3l-36.4,36.4c-1.3,1.3-3.4,1.3-4.8,0l0,0c-1.3-1.3-1.3-3.4,0-4.8l36.4-36.4
				c1.3-1.3,3.4-1.3,4.8,0l0,0C397,217.8,397,220,395.7,221.3z"/>
			<path class="st9" d="M366.2,250.7L366.2,250.7c-1.4,1.4-3.5,1.4-4.8,0.1l0,0c-1.3-1.3-1.3-3.4,0-4.8l0.1-0.1
				c1.3-1.3,3.4-1.3,4.8,0l0,0C367.5,247.3,367.5,249.4,366.2,250.7z"/>
			<path class="st1" d="M332.6,284.3l-11,11c-1.3,1.3-3.4,1.3-4.8,0l0,0c-1.3-1.3-1.3-3.4,0-4.8l11-11c1.3-1.3,3.4-1.3,4.8,0l0,0
				C333.9,280.8,333.9,283,332.6,284.3z"/>
			<path class="st9" d="M309.8,307.1L309.8,307.1c-1.4,1.4-3.5,1.4-4.8,0.1l0,0c-1.3-1.3-1.3-3.4,0-4.8l0.1-0.1
				c1.3-1.3,3.4-1.3,4.8,0l0,0C311.1,303.7,311.1,305.8,309.8,307.1z"/>
		</g>
		<g>
			<path class="st9" d="M386.6,340l11-11c1.3-1.3,3.4-1.3,4.8,0l0,0c1.3,1.3,1.3,3.4,0,4.8l-11,11c-1.3,1.3-3.4,1.3-4.8,0l0,0
				C385.3,343.4,385.3,341.3,386.6,340z"/>
			<path class="st8" d="M376.7,349.8L376.7,349.8c1.4-1.4,3.5-1.4,4.8-0.1l0,0c1.3,1.3,1.3,3.4,0,4.8l-0.1,0.1
				c-1.3,1.3-3.4,1.3-4.8,0l0,0C375.4,353.3,375.4,351.2,376.7,349.8z"/>
			<path class="st1" d="M363.2,363.4L363.2,363.4c1.4-1.4,3.5-1.4,4.8-0.1l0,0c1.3,1.3,1.3,3.4,0,4.8l-0.1,0.1
				c-1.3,1.3-3.4,1.3-4.8,0l0,0C361.9,366.8,361.9,364.7,363.2,363.4z"/>
			<path class="st8" d="M410.9,315.7L410.9,315.7c1.4-1.4,3.5-1.4,4.8-0.1l0,0c1.3,1.3,1.3,3.4,0,4.8l-0.1,0.1
				c-1.3,1.3-3.4,1.3-4.8,0l0,0C409.6,319.1,409.6,317,410.9,315.7z"/>
		</g>
		<g>
			<path class="st8" d="M416.1,391.6l-11,11c-1.3,1.3-3.4,1.3-4.8,0l0,0c-1.3-1.3-1.3-3.4,0-4.8l11-11c1.3-1.3,3.4-1.3,4.8,0l0,0
				C417.4,388.2,417.4,390.3,416.1,391.6z"/>
		</g>
		<g>
			<path class="st9" d="M380.6,331.7l-11,11c-1.3,1.3-3.4,1.3-4.8,0l0,0c-1.3-1.3-1.3-3.4,0-4.8l11-11c1.3-1.3,3.4-1.3,4.8,0l0,0
				C381.9,328.3,381.9,330.4,380.6,331.7z"/>
			<path class="st1" d="M404.9,307.4L404.9,307.4c-1.4,1.4-3.5,1.4-4.8,0.1l0,0c-1.3-1.3-1.3-3.4,0-4.8l0.1-0.1
				c1.3-1.3,3.4-1.3,4.8,0l0,0C406.2,304,406.2,306.1,404.9,307.4z"/>
			<path class="st8" d="M390.5,321.9L390.5,321.9c-1.4,1.4-3.5,1.4-4.8,0.1l0,0c-1.3-1.3-1.3-3.4,0-4.8l0.1-0.1
				c1.3-1.3,3.4-1.3,4.8,0l0,0C391.8,318.4,391.8,320.5,390.5,321.9z"/>
		</g>
		<g>
			<path class="st9" d="M404.5,355.6l-11,11c-1.3,1.3-3.4,1.3-4.8,0l0,0c-1.3-1.3-1.3-3.4,0-4.8l11-11c1.3-1.3,3.4-1.3,4.8,0l0,0
				C405.8,352.1,405.8,354.2,404.5,355.6z"/>
			<path class="st8" d="M419,341L419,341c-1.4,1.4-3.5,1.4-4.8,0.1l0,0c-1.3-1.3-1.3-3.4,0-4.8l0.1-0.1c1.3-1.3,3.4-1.3,4.8,0l0,0
				C420.4,337.5,420.4,339.7,419,341z"/>
		</g>
		<g>
			<path class="st9" d="M410.4,363.9l11-11c1.3-1.3,3.4-1.3,4.8,0l0,0c1.3,1.3,1.3,3.4,0,4.8l-11,11c-1.3,1.3-3.4,1.3-4.8,0l0,0
				C409.1,367.3,409.1,365.2,410.4,363.9z"/>
			<path class="st8" d="M400.6,373.7L400.6,373.7c1.4-1.4,3.5-1.4,4.8-0.1l0,0c1.3,1.3,1.3,3.4,0,4.8l-0.1,0.1
				c-1.3,1.3-3.4,1.3-4.8,0l0,0C399.3,377.1,399.3,375,400.6,373.7z"/>
		</g>
		<path class="st9" d="M417,0c-0.4,1.2-0.1,2.5,0.8,3.4l0,0c1.3,1.3,3.4,1.3,4.8,0l3.5-3.5L417,0z"/>
		<path class="st8" d="M389.3,0l-15.9,15.9c-1.3,1.3-1.3,3.4,0,4.8l0,0c1.3,1.3,3.4,1.3,4.8,0L398.9,0L389.3,0z"/>
		<path class="st9" d="M247.6,0c0,0.9,0.3,1.7,1,2.3l0,0c1.3,1.3,3.4,1.3,4.8,0l0.1-0.1c0.6-0.6,1-1.5,1-2.3L247.6,0z"/>
		<path class="st8" d="M222.1,0L195,27.1c-1.3,1.3-1.3,3.4,0,4.8l0,0c1.3,1.3,3.4,1.3,4.8,0L229,2.7c0.7-0.7,1.1-1.7,1-2.7L222.1,0z
			"/>
		<path class="st8" d="M126.9,0l-5.2,5.2c-1.3,1.3-1.3,3.4,0,4.8l0,0c1.3,1.3,3.4,1.3,4.8,0l10-10L126.9,0z"/>
		<path class="st9" d="M55.4,0L51,4.4c-1.3,1.3-1.3,3.4,0,4.8l0,0c1.3,1.3,3.4,1.3,4.8,0L65,0L55.4,0z"/>
		<path class="st8" d="M33.7,0c0.1,0.6,0.4,1.2,0.9,1.6l0,0C36,3,38.1,3,39.4,1.7L41.1,0L33.7,0z"/>
		<path class="st9" d="M30.8,148.7L30.8,148.7c-1.4-1.4-3.5-1.4-4.8,0l-26,26l0,9.6l30.8-30.8C32.1,152.2,32.1,150,30.8,148.7z"/>
		<path class="st9" d="M1.9,106L1.9,106c-0.6-0.6-1.2-0.9-1.9-1l0,6.8c0.7-0.1,1.3-0.4,1.8-0.9l0.1-0.1C3.2,109.4,3.2,107.3,1.9,106
			z"/>
		<path class="st8" d="M25.7,58.4L25.7,58.4c-1.4-1.4-3.5-1.4-4.8,0L0,79.2l0,9.6l25.7-25.7C27,61.9,27,59.7,25.7,58.4z"/>
		<path class="st8" d="M13.7,46.5L13.7,46.5c-1.4-1.4-3.5-1.4-4.8,0L0,55.4l0,7.9c1,0.1,2-0.2,2.7-1l11-11
			C15,49.9,15,47.8,13.7,46.5z"/>
		<path class="st8" d="M7.5,5L7.5,5C6.2,3.6,4,3.6,2.7,4.9L0,7.7l0,9.6l7.5-7.5C8.8,8.4,8.8,6.3,7.5,5z"/>
		<path class="st9" d="M26.6,319.9L26.6,319.9c-1.4-1.4-3.5-1.4-4.8,0L0,341.6l0,9.6l26.6-26.6C27.9,323.3,27.9,321.2,26.6,319.9z"
			/>
		<path class="st1" d="M27.7,294.9L27.7,294.9c-1.4-1.4-3.5-1.4-4.8,0L0,317.7l0,9.6l27.7-27.7C29,298.3,29,296.2,27.7,294.9z"/>
		<path class="st8" d="M12.5,286.2L12.5,286.2c-1.4-1.4-3.5-1.4-4.8,0L0,293.9l0,9.6l12.5-12.5C13.9,289.6,13.9,287.5,12.5,286.2z"
			/>
		<path class="st1" d="M3.8,271.1L3.8,271.1c-1.1-1.1-2.6-1.3-3.8-0.7l0,9.3l3.8-3.8C5.1,274.5,5.1,272.4,3.8,271.1z"/>
		<path class="st8" d="M8.6,242.4L8.6,242.4c-1.4-1.4-3.5-1.4-4.8,0L0,246.2l0,9.6l8.6-8.6C9.9,245.8,9.9,243.7,8.6,242.4z"/>
		<path class="st1" d="M23.8,179.5L23.8,179.5c-1.4-1.4-3.5-1.4-4.8,0l-19,19l0,9.6l23.8-23.8C25.1,182.9,25.1,180.8,23.8,179.5z"/>
		<path class="st9" d="M12.1,186.4L12.1,186.4c1.4-1.4,3.5-1.4,4.8-0.1l0,0c1.3,1.3,1.3,3.4,0,4.8l-0.1,0.1c-1.3,1.3-3.4,1.3-4.8,0
			l0,0C10.8,189.8,10.8,187.7,12.1,186.4z"/>
		<path class="st1" d="M58.4,292.7L22,329.2c-1.3,1.3-3.4,1.3-4.8,0l0,0c-1.3-1.3-1.3-3.4,0-4.8l36.4-36.4c1.3-1.3,3.4-1.3,4.8,0
			l0,0C59.8,289.3,59.8,291.4,58.4,292.7z"/>
		<path class="st9" d="M29,322.2L29,322.2c-1.4,1.4-3.5,1.4-4.8,0.1l0,0c-1.3-1.3-1.3-3.4,0-4.8l0.1-0.1c1.3-1.3,3.4-1.3,4.8,0l0,0
			C30.3,318.8,30.3,320.9,29,322.2z"/>
		<path class="st1" d="M3.3,418L3.3,418c-0.9-0.9-2.2-1.2-3.3-0.9l0,9l3.3-3.3C4.6,421.5,4.6,419.3,3.3,418z"/>
		<path class="st1" d="M253.2,435l29.5-29.5c1.3-1.3,1.3-3.4,0-4.8l0,0c-1.3-1.3-3.4-1.3-4.8,0L243.6,435H253.2z"/>
		<path class="st8" d="M205.8,435l21.3-21.3c1.3-1.3,1.3-3.4,0-4.8l0,0c-1.3-1.3-3.4-1.3-4.8,0L196.2,435H205.8z"/>
		<path class="st8" d="M181.9,435l30.1-30.1c1.3-1.3,1.3-3.4,0-4.8l0,0c-1.3-1.3-3.4-1.3-4.8,0L172.3,435H181.9z"/>
		<path class="st8" d="M157.9,435c0.7-1.3,0.5-2.9-0.6-4l0,0c-1.3-1.3-3.4-1.3-4.8,0l-4,4H157.9z"/>
		<path class="st8" d="M15,435l0.8-0.8c1.3-1.3,1.3-3.4,0-4.8l0,0c-1.3-1.3-3.4-1.3-4.8,0L5.4,435H15z"/>
		<path class="st1" d="M38.8,435l3.9-3.9c1.3-1.3,1.3-3.4,0-4.8l0,0c-1.3-1.3-3.4-1.3-4.8,0l-8.7,8.7H38.8z"/>
		<path class="st1" d="M396.6,435l6.2-6.2c1.3-1.3,1.3-3.4,0-4.8l0,0c-1.3-1.3-3.4-1.3-4.8,0l-11,11H396.6z"/>
		<path class="st8" d="M372.8,435l12.4-12.4c1.3-1.3,1.3-3.4,0-4.8l0,0c-1.3-1.3-3.4-1.3-4.8,0L363.2,435H372.8z"/>
		<path class="st1" d="M325.1,435l4.3-4.3c1.3-1.3,1.3-3.4,0-4.8l0,0c-1.3-1.3-3.4-1.3-4.8,0l-9.1,9.1H325.1z"/>
		<path class="st9" d="M323.5,435c0-0.8-0.4-1.6-1-2.2l0,0c-1.3-1.3-3.4-1.3-4.8,0l-0.1,0.1c-0.6,0.6-0.9,1.4-1,2.2H323.5z"/>
		<path class="st8" d="M277.4,435l9.8-9.8c1.3-1.3,1.3-3.4,0-4.8l0,0c-1.3-1.3-3.4-1.3-4.8,0l-11,11c-1,1-1.2,2.4-0.8,3.6H277.4z"/>
		<path class="st9" d="M418.4,435c-0.1-0.6-0.4-1.3-0.9-1.8l0,0c-1.3-1.3-3.4-1.3-4.8,0l-1.8,1.8H418.4z"/>
		<path class="st9" d="M435,267.7l-22.1,22.1c-1.3,1.3-1.3,3.4,0,4.8l0,0c1.3,1.3,3.4,1.3,4.8,0l17.3-17.3V267.7z"/>
		<path class="st8" d="M435,267.7l-5.4,5.4c-1.3,1.3-1.3,3.4,0,4.8l0,0c1.3,1.3,3.4,1.3,4.8,0l0.6-0.6V267.7z"/>
		<path class="st9" d="M435,243.6L404.6,274c-1.3,1.3-1.3,3.4,0,4.8l0,0c1.3,1.3,3.4,1.3,4.8,0l25.5-25.5V243.6z"/>
		<path class="st1" d="M435,220l-3.8,3.8c-1.3,1.3-1.3,3.4,0,4.8l0,0c1,1,2.5,1.2,3.8,0.7V220z"/>
		<path class="st8" d="M435,172.3l-30.2,30.2c-1.3,1.3-1.3,3.4,0,4.8l0,0c1.3,1.3,3.4,1.3,4.8,0l25.4-25.4V172.3z"/>
		<path class="st8" d="M435,124.6l-9.4,9.4c-1.3,1.3-1.3,3.4,0,4.8l0,0c1.3,1.3,3.4,1.3,4.8,0l4.6-4.6V124.6z"/>
		<path class="st8" d="M435,243.6l-10.2,10.2c-1.3,1.3-1.3,3.4,0,4.8l0,0c1.3,1.3,3.4,1.3,4.8,0l5.4-5.4V243.6z"/>
		<path class="st1" d="M435,291.6l-10.2,10.2c-1.3,1.3-1.3,3.4,0,4.8l0,0c1.3,1.3,3.4,1.3,4.8,0l5.4-5.4V291.6z"/>
		<path class="st8" d="M435,315.5l-1.5,1.5c-1.3,1.3-1.3,3.4,0,4.8l0,0c0.4,0.4,0.9,0.7,1.4,0.8V315.5z"/>
		<path class="st8" d="M435,410.9l-10.8,10.8c-1.3,1.3-1.3,3.4,0,4.8l0,0c1.3,1.3,3.4,1.3,4.8,0l6-6V410.9z"/>
	</g>
</g>
<g id="Layer_2" class="st27">
</g>
</svg>
