<?xml version="1.0" encoding="utf-8"?>
<!-- Generator: Adobe Illustrator 22.0.1, SVG Export Plug-In . SVG Version: 6.00 Build 0)  -->
<!DOCTYPE svg PUBLIC "-//W3C//DTD SVG 1.1//EN" "http://www.w3.org/Graphics/SVG/1.1/DTD/svg11.dtd">
<svg version="1.1" xmlns="http://www.w3.org/2000/svg" xmlns:xlink="http://www.w3.org/1999/xlink" x="0px" y="0px"
	 viewBox="0 0 174.4 43.2" style="enable-background:new 0 0 174.4 43.2;" xml:space="preserve">
<style type="text/css">
	.st0{fill:#F2F2F2;}
	.st1{fill:#A0E499;}
	.st2{fill:none;stroke:#AAA9A6;stroke-width:0.3692;stroke-miterlimit:10;}
	.st3{fill:#93888B;}
	.st4{fill:#656160;}
	.st5{fill:#D7F196;}
	.st6{fill:#9CC7F7;}
	.st7{fill:#656160;stroke:#656160;stroke-width:0.6384;stroke-miterlimit:10;}
	.st8{fill:#70AA52;}
	.st9{fill:#FFFFFF;}
	.st10{fill:#656160;stroke:#656160;stroke-width:0.6807;stroke-miterlimit:10;}
	.st11{fill:#FFFFFF;stroke:#656160;stroke-width:4;stroke-linecap:round;stroke-miterlimit:10;}
	.st12{fill:none;stroke:#656160;stroke-miterlimit:10;}
	.st13{fill:none;stroke:#656160;stroke-width:2;stroke-miterlimit:10;}
	.st14{fill:none;stroke:#656160;stroke-width:2;stroke-linecap:round;stroke-miterlimit:10;}
	.st15{fill:#656160;stroke:#656160;stroke-width:0.4688;stroke-miterlimit:10;}
	.st16{fill:#656160;stroke:#656160;stroke-width:0.579;stroke-miterlimit:10;}
	.st17{fill:#F2F2F2;stroke:#656160;stroke-width:2.3777;stroke-miterlimit:10;}
	.st18{fill:#656160;stroke:#656160;stroke-width:0.5573;stroke-miterlimit:10;}
	.st19{fill:none;stroke:#656160;stroke-width:2.3777;stroke-miterlimit:10;}
	.st20{fill:none;stroke:#656160;stroke-width:2.3777;stroke-linecap:round;stroke-miterlimit:10;}
	.st21{fill:#CCCCCC;}
	.st22{fill:none;stroke:#FFFFFF;stroke-width:6.6302;stroke-linecap:round;stroke-miterlimit:10;}
	.st23{fill:none;stroke:#9CC7F7;stroke-miterlimit:10;}
	.st24{fill:none;stroke:#CCCCCC;stroke-miterlimit:10;}
	.st25{display:none;opacity:0.42;}
	.st26{display:inline;}
	.st27{fill:none;stroke:#000000;stroke-width:1.0848;stroke-miterlimit:10;}
	.st28{fill:none;stroke:#000000;stroke-width:0.9024;stroke-miterlimit:10;}
</style>
<g id="Layer_1">
	<g>
		<g>
			<path class="st6" d="M47.5,22.7c0-4.3-2.2-9.3-6.4-14.7C38,4,35,1.3,34.9,1.2c-0.4-0.4-1.1-0.4-1.5,0c-0.1,0.1-3.1,2.9-6.1,6.9
				c-4.1,5.5-6.2,10.5-6.1,14.8c0.1,7,5.5,12.5,12.2,13l2.2,0C42.2,35.4,47.6,29.8,47.5,22.7z"/>
			<path class="st10" d="M2.9,12.9c-0.6,0.1-1,0.6-1,1.1c0,0.2,0.1,4.3,1.1,9.4c1.4,6.9,3.8,11.9,7.1,14.8
				c5.4,4.7,13.3,4.3,18.2-0.4l4.5,3.9c0.5,0.4,1.2,0.4,1.6-0.1c0.2-0.2,0.3-0.5,0.3-0.8c0-0.3-0.1-0.6-0.4-0.8l-4.5-3.9
				c4.1-5.5,3.5-13.4-1.9-18.1c-3.3-2.9-8.6-4.7-15.6-5.2C7.2,12.4,3.1,12.9,2.9,12.9L2.9,12.9z M26.5,19.6c4.4,3.9,5,10.4,1.7,15
				L26,32.7l-0.5-7.5c0-0.6-0.5-1.1-1.1-1.1c-0.6,0-1.1,0.6-1.1,1.2l0.3,5.2l-5.2-4.6L18,18.6c0-0.6-0.6-1.1-1.2-1s-1.1,0.6-1,1.2
				l0.3,5.2l-5.6-4.9c-0.5-0.4-1.2-0.4-1.6,0.1c-0.4,0.5-0.4,1.2,0.1,1.6l5.6,4.9L9.4,26c-0.6,0-1.1,0.6-1,1.2c0,0.6,0.6,1.1,1.2,1
				l7.5-0.5l5.2,4.6L17,32.7c-0.6,0-1.1,0.6-1,1.2c0,0.6,0.6,1.1,1.2,1l7.5-0.5l2.1,1.9c-4.1,3.8-10.6,4.1-15.1,0.2
				C6.5,32,4.6,21.9,4.2,15C7.9,14.8,20.4,14.3,26.5,19.6L26.5,19.6z M26.5,19.6"/>
		</g>
		<g>
			<g>
				<path class="st4" d="M60.8,31.1c0,3.5,0,7,0,10.4c-0.4,0.1-3.9,0.1-4.6,0c-0.1-0.3-0.1-26.6,0-27.6c0.1,0,0.2,0,0.4,0
					c2.6,0,5.3,0,7.9,0c2.3,0.1,4.4,0.7,6.3,2c1.8,1.2,2.8,2.9,3.1,5c0.2,1.4,0.2,2.8-0.1,4.2c-0.5,2-1.7,3.5-3.5,4.5
					c-1.4,0.8-2.9,1.2-4.4,1.4c-1.4,0.2-2.9,0.1-4.3,0.2C61.3,31.1,61.1,31.1,60.8,31.1z M60.8,28.9c1,0,1.9,0,2.9,0
					c0.8,0,1.6-0.2,2.4-0.5c0.9-0.4,1.6-0.9,2-1.8c0.3-0.7,0.4-1.4,0.5-2.2c0.1-1,0.1-2.1,0-3.1c-0.1-0.9-0.3-1.8-0.7-2.7
					c-0.8-1.6-2-2.5-3.8-2.6c-1-0.1-2.1,0-3.1-0.1c0,0-0.1,0-0.2,0C60.8,20.3,60.8,24.6,60.8,28.9z"/>
				<path class="st4" d="M108.7,41.5c-1.6,0-3.2,0-4.7,0c-0.1-0.4-0.1-19.2,0-19.7c1.5,0,3.1,0,4.7,0c0,1,0,2.1,0,3.1
					c0,0,0.1,0,0.1,0c0.1-0.2,0.2-0.3,0.4-0.5c0.6-0.9,1.3-1.6,2.2-2.2c1.1-0.8,2.4-1.2,3.8-1.3c1,0,1.9,0.1,2.9,0.5
					c0.9,0.4,1.5,1,2,1.9c0.7,1.5,1.1,3.1,1.1,4.8c0,4.3,0,8.7,0,13c0,0.1,0,0.3,0,0.4c-1.5,0-3.1,0-4.7,0c0-0.2,0-0.4,0-0.6
					c0-4,0-8,0-11.9c0-1-0.1-1.9-0.5-2.8c-0.3-0.7-0.8-1.1-1.4-1.3c-1.5-0.4-2.8-0.1-4.1,0.6c-0.4,0.2-0.8,0.6-1.2,0.9
					c-0.3,0.2-0.4,0.5-0.4,0.9c0,4.5,0,9,0,13.5C108.7,41.1,108.7,41.3,108.7,41.5z"/>
				<path class="st4" d="M157.1,31.4c0,1.8-0.3,3.5-1,5.2c-1,2.2-2.6,3.8-4.8,4.6c-1.7,0.6-3.4,0.8-5.1,0.6c-1.3-0.1-2.6-0.4-3.7-1
					c-1.6-0.8-2.8-1.9-3.6-3.5c-0.8-1.5-1.2-3.2-1.3-4.9c-0.1-1.5,0-2.9,0.3-4.4c0.4-2,1.3-3.6,2.8-5c1.1-1,2.4-1.6,3.8-1.9
					c1.3-0.3,2.6-0.4,4-0.3c1.5,0.1,2.9,0.5,4.3,1.2c1.7,1,2.9,2.4,3.6,4.2c0.4,1.1,0.7,2.3,0.8,3.4C157,30.4,157,30.9,157.1,31.4z
					 M151.9,31.4c-0.1-0.9-0.1-1.8-0.2-2.7c-0.1-1-0.3-2.1-0.6-3c-0.3-0.9-0.8-1.6-1.6-2.1c-0.9-0.5-1.9-0.7-2.9-0.6
					c-0.9,0.1-1.8,0.4-2.4,1.1c-0.6,0.6-0.9,1.4-1.1,2.2c-0.4,1.5-0.5,3-0.6,4.5c0,1.3,0.1,2.6,0.2,3.8c0.1,1,0.3,2.1,0.8,3
					c0.5,1.1,1.4,1.9,2.6,2.1c0.6,0.1,1.1,0.1,1.7,0.1c1.3-0.1,2.2-0.7,2.9-1.8c0.4-0.6,0.6-1.3,0.8-2
					C151.8,34.5,151.9,33,151.9,31.4z"/>
				<path class="st4" d="M100.2,41.5c-1.3,0-2.6,0-3.9,0c-0.3-0.8-0.3-1.6-0.6-2.4c-0.2,0.2-0.3,0.3-0.3,0.4c-1,1.4-2.5,2.1-4.2,2.3
					c-1.3,0.2-2.5,0.1-3.7-0.5c-1.6-0.8-2.5-2.1-2.8-3.8c-0.2-1.1-0.1-2.1,0.2-3.2c0.5-1.5,1.6-2.5,2.9-3.2c1.6-0.8,3.4-1,5.1-0.8
					c0.8,0.1,1.6,0.2,2.4,0.3c0-0.7,0-1.5,0-2.2c0-0.9,0-1.8-0.2-2.7c-0.1-0.3-0.1-0.5-0.2-0.8c-0.2-0.8-0.8-1.3-1.7-1.4
					c-1.2-0.2-2.4-0.1-3.5,0.5c-0.6,0.3-1.1,0.8-1.5,1.3c-0.5,0.7-0.9,1.4-1.3,2.1c-0.1,0.1-0.2,0.3-0.2,0.4
					c-0.3-0.1-0.5-0.2-0.9-0.3c0-0.3-0.1-0.7-0.1-1c-0.1-0.6-0.2-1.2-0.2-1.8c0-0.3,0-0.4,0.2-0.6c1.3-1.2,2.7-2.1,4.4-2.7
					c0.9-0.3,1.8-0.5,2.8-0.5c0.9,0,1.8,0,2.8,0.2c0.6,0.1,1.2,0.3,1.7,0.6c0.7,0.4,1.2,0.9,1.5,1.6c0.6,1.1,0.9,2.2,1,3.4
					c0.1,0.6,0.1,1.2,0.1,1.7c0,4.1,0,8.3,0,12.4C100.2,41.1,100.2,41.3,100.2,41.5z M95.5,32.5c-1.5-0.2-2.8-0.1-4.1,0.4
					c-1.2,0.4-2,1.2-2.1,2.5c-0.1,1.1,0.1,2.1,1,2.9c0.6,0.6,1.5,0.7,2.3,0.7c1,0,1.9-0.4,2.7-1c0.2-0.2,0.4-0.4,0.3-0.7
					c0-1.5,0-3,0-4.4C95.5,32.7,95.5,32.6,95.5,32.5z"/>
				<path class="st4" d="M173,28.1c-0.3,0.1-0.5,0.2-0.8,0.3c-0.1-0.1-0.2-0.3-0.2-0.4c-0.4-0.8-0.8-1.6-1.2-2.4
					c-0.4-0.7-0.8-1.3-1.5-1.9c-0.6-0.5-1.2-0.8-2-0.8c-0.9-0.1-1.7,0.1-2.4,0.5c-0.9,0.5-1.2,1.4-1.2,2.3c0,0.8,0.4,1.4,0.9,1.9
					c0.5,0.4,1,0.8,1.6,1.1c1,0.4,2,0.8,3.1,1.2c1.3,0.6,2.6,1.3,3.6,2.3c1.3,1.4,1.7,3,1.5,4.8c-0.2,1.1-0.6,2.1-1.4,2.9
					c-0.6,0.5-1.3,0.9-2,1.2c-1.5,0.7-3.2,0.8-4.8,0.7c-2.3-0.2-4.4-1-6.2-2.4c-0.2-0.2-0.4-0.3-0.4-0.6c0-0.6-0.1-1.1-0.1-1.7
					c-0.1-0.8-0.1-1.7-0.2-2.5c0.4-0.3,0.8-0.2,1.2-0.3c0.1,0.3,0.2,0.6,0.3,0.8c0.5,1.3,1.3,2.5,2.3,3.5c0.9,0.8,1.9,1.3,3.1,1.3
					c0.7,0,1.4,0,2.1-0.2c0.2-0.1,0.5-0.2,0.7-0.3c0.6-0.4,1-0.9,1-1.6c0.1-1.1-0.3-1.9-1.2-2.5c-0.9-0.6-1.9-1.1-3-1.6
					c-1.2-0.6-2.3-1.1-3.5-1.7c-0.4-0.2-0.8-0.5-1.2-0.8c-1-0.7-1.5-1.8-1.6-2.9c-0.1-1.1-0.1-2.2,0.2-3.2c0.6-1.8,1.8-2.9,3.5-3.5
					c1.6-0.6,3.2-0.6,4.8-0.4c1.4,0.2,2.8,0.8,3.9,1.7c0.5,0.4,0.8,0.8,1.3,1.3c0.2,0.2,0.2,0.4,0.2,0.6c-0.1,0.9-0.2,1.8-0.3,2.7
					C173,27.7,173,27.9,173,28.1z"/>
				<path class="st4" d="M136.5,38c0.1,0.2,0.2,0.4,0.3,0.6c0.2,0.3,0.1,0.6-0.1,0.8c-1.2,1.4-2.6,2.2-4.5,2.4
					c-1.2,0.1-2.4,0.1-3.6-0.3c-0.9-0.3-1.6-0.9-2.1-1.8c-0.5-1-0.8-2.1-0.8-3.2c0-4.1-0.1-8.2-0.1-12.4c0-0.2,0-0.4,0-0.6
					c-0.6,0-1.1,0-1.6,0c-0.5,0-1,0-1.6,0c0-0.6,0-1.1,0-1.7c1,0,2.1,0,3.2,0c0.1-0.6,0-1.2,0-1.7c0-0.6,0-1.1,0-1.7
					c0-0.6,0-1.1,0-1.8c1.6-0.3,3.2-0.7,4.9-1c0,2.1,0,4.1,0,6.2c0.8,0,1.5,0,2.2,0c0.7,0,1.5,0,2.3,0c-0.2,0.6-0.4,1.2-0.6,1.8
					c-1.3,0-2.5,0-3.8,0c0,0.2,0,0.3,0,0.5c0,3.7,0,7.3,0,11c0,0.7,0.1,1.4,0.2,2c0.2,1.3,1.1,2.1,2.5,2.1
					C134.4,39.1,135.5,38.8,136.5,38z"/>
				<path class="st4" d="M81.9,41.5c-1.6,0-3.1,0-4.7,0c0-10.1,0-20.2,0-30.2c0.4-0.1,4.2-0.1,4.7,0C81.9,21.3,81.9,31.4,81.9,41.5z
					"/>
			</g>
		</g>
	</g>
</g>
<g id="Layer_2" class="st25">
</g>
</svg>
