<?xml version="1.0" standalone="no"?>
<!DOCTYPE svg PUBLIC "-//W3C//DTD SVG 20010904//EN"
 "http://www.w3.org/TR/2001/REC-SVG-20010904/DTD/svg10.dtd">
<svg version="1.0" xmlns="http://www.w3.org/2000/svg"
 width="700.000000pt" height="700.000000pt" viewBox="0 0 700.000000 700.000000"
 preserveAspectRatio="xMidYMid meet">
<metadata>
Created by potrace 1.11, written by Peter Selinger 2001-2013
</metadata>
<g transform="translate(0.000000,700.000000) scale(0.100000,-0.100000)"
fill="#000000" stroke="none">
<path d="M1015 4714 c-22 -2 -127 -9 -234 -15 -107 -6 -207 -15 -224 -20 -47
-13 -91 -48 -116 -91 -20 -35 -23 -53 -22 -146 3 -366 80 -931 190 -1398 181
-764 448 -1322 810 -1698 372 -384 853 -579 1386 -563 240 8 411 42 630 128
175 68 400 205 512 312 l41 39 286 -248 c157 -137 305 -259 327 -271 68 -37
166 -26 222 25 52 47 75 156 46 224 -8 19 -119 122 -313 291 -166 143 -303
262 -305 263 -2 2 14 27 35 56 52 73 108 176 153 283 310 733 127 1563 -462
2095 -478 432 -1238 667 -2357 730 -168 9 -504 11 -605 4z m660 -394 c1020
-55 1743 -300 2131 -724 353 -386 469 -924 308 -1431 -42 -130 -144 -335 -167
-335 -4 0 -57 43 -117 95 -100 88 -109 99 -114 138 -3 23 -17 242 -31 487 -28
485 -34 518 -90 575 -91 91 -241 58 -303 -67 l-23 -47 16 -279 c9 -153 15
-293 13 -311 -3 -33 -3 -33 -293 223 l-290 257 -36 507 c-33 458 -39 512 -58
550 -26 51 -88 98 -139 106 -95 16 -198 -58 -220 -159 -5 -25 -2 -152 9 -335
10 -162 16 -296 15 -298 -2 -1 -151 128 -332 288 -181 159 -347 299 -370 310
-120 59 -259 -17 -272 -150 -10 -104 -6 -108 368 -437 187 -163 338 -299 336
-301 -2 -2 -141 -11 -308 -21 -324 -19 -336 -22 -392 -78 -56 -55 -75 -147
-43 -209 22 -42 79 -91 120 -102 24 -7 178 -1 493 19 253 15 480 28 505 29
l46 0 292 -262 c160 -143 289 -263 287 -265 -2 -3 -141 -13 -309 -22 -346 -21
-362 -25 -421 -109 -25 -35 -30 -52 -30 -95 2 -90 62 -173 141 -196 19 -5 206
2 489 20 252 15 480 28 506 29 45 0 51 -4 158 -96 61 -53 109 -101 107 -107
-5 -18 -129 -109 -212 -157 -344 -196 -772 -247 -1147 -134 -406 121 -702 391
-948 867 -229 441 -396 1036 -485 1722 -13 107 -45 443 -45 487 0 15 13 18 83
21 195 8 597 6 772 -3z"/>
</g>
</svg>
